<?xml version="1.0" encoding="UTF-8" standalone="no"?>
<!-- Created with Inkscape (http://www.inkscape.org/) -->

<svg
   version="1.1"
   id="svg198"
   width="503.52267"
   height="684.66565"
   viewBox="0 0 503.52268 684.66565"
   sodipodi:docname="Fencer1a.svg"
   inkscape:version="1.2.2 (732a01da63, 2022-12-09, custom)"
   xmlns:inkscape="http://www.inkscape.org/namespaces/inkscape"
   xmlns:sodipodi="http://sodipodi.sourceforge.net/DTD/sodipodi-0.dtd"
   xmlns="http://www.w3.org/2000/svg"
   xmlns:svg="http://www.w3.org/2000/svg">
  <defs
     id="defs202" />
  <sodipodi:namedview
     id="namedview200"
     pagecolor="#ffffff"
     bordercolor="#000000"
     borderopacity="0.25"
     inkscape:showpageshadow="2"
     inkscape:pageopacity="0.0"
     inkscape:pagecheckerboard="0"
     inkscape:deskcolor="#d1d1d1"
     showgrid="false"
     inkscape:zoom="1.1835209"
     inkscape:cx="252.63601"
     inkscape:cy="335.86226"
     inkscape:window-width="1846"
     inkscape:window-height="1016"
     inkscape:window-x="0"
     inkscape:window-y="0"
     inkscape:window-maximized="1"
     inkscape:current-layer="layer1" />
  <g
     inkscape:groupmode="layer"
     id="layer1"
     inkscape:label="Fencer 1a">
    <path
       style="fill:#000000;stroke-width:1.06667"
       d="m 288.42307,691.61735 c -0.88,-0.19002 -4.84259,-0.65282 -8.80575,-1.02844 l -7.20575,-0.68296 -5.86091,-6.90852 c -5.86014,-6.9076 -5.86092,-6.9095 -5.86092,-14.21201 0,-6.3983 -0.46969,-8.13445 -3.78954,-14.00786 -2.08423,-3.68741 -5.20423,-8.62808 -6.93333,-10.97928 -1.72909,-2.3512 -3.1438,-5.36519 -3.1438,-6.69778 0,-1.33258 1.95107,-6.24042 4.33571,-10.90632 5.8368,-11.42055 5.84028,-15.18623 0.0287,-31.05054 -8.82906,-24.10119 -11.27243,-40.83081 -9.70908,-66.4776 0.61428,-10.07732 1.86821,-22.4024 2.78651,-27.38906 3.10868,-16.88129 -0.30247,-24.44696 -19.23716,-42.66667 -7.01142,-6.74667 -16.71976,-16.22667 -21.57409,-21.06667 -4.85433,-4.84 -9.31293,-8.8 -9.90799,-8.8 -1.17624,0 -1.68204,1.72471 -3.12817,10.66667 -0.52183,3.22666 -2.30552,10.66666 -3.96375,16.53333 -4.00991,14.18668 -3.81018,18.0192 1.52495,29.26176 2.3851,5.02603 5.85891,13.21824 7.71959,18.20491 1.86068,4.98667 4.07886,10.71404 4.92927,12.72749 1.48122,3.50697 1.98393,9.47625 4.49761,53.40584 1.06102,18.54256 3.17899,30.43278 9.12013,51.2 1.9301,6.74667 3.83771,14.5373 4.2391,17.31251 0.71203,4.92272 0.60764,5.17646 -4.27836,10.4 -2.75451,2.94479 -5.39217,5.35416 -5.86148,5.35416 -1.24977,0 -14.85884,9.3563 -18.58812,12.77942 -3.95859,3.63359 -19.07612,13.27906 -24.05079,15.34516 -2.0254,0.8412 -7.31157,2.13562 -11.74705,2.87647 -7.97127,1.33144 -8.17437,1.30726 -17.56926,-2.0922 -11.10161,-4.01703 -12.23294,-4.79385 -12.23294,-8.39968 0,-3.51612 3.20294,-19.48075 4.35082,-21.68612 0.4896,-0.94065 4.39096,-3.52814 8.66968,-5.74996 12.38151,-6.42939 21.62003,-12.95109 24.75544,-17.4755 5.55282,-8.01271 5.94283,-30.19862 0.70807,-40.27873 -3.36521,-6.4801 -14.57131,-36.26829 -22.21499,-59.05219 -5.02615,-14.98166 -8.11703,-22.44107 -11.04959,-26.66667 -7.84256,-11.30048 -9.08758,-19.64527 -6.53286,-43.78668 0.94033,-8.88583 1.00906,-15.41289 0.24655,-23.41561 -1.37114,-14.3905 -7.10031,-38.39771 -9.16336,-38.39771 -0.8267,0 -1.50309,0.3688 -1.50309,0.81955 0,0.45075 -1.8,3.07338 -4,5.82806 -7.636,9.56126 -9.866672,12.90602 -9.866672,14.79453 0,2.66979 -2.05233,3.62933 -3.87156,1.8101 -3.12575,-3.12575 -7.85387,-18.16895 -7.8579,-25.00108 -0.004,-7.44994 2.74419,-23.22662 4.61309,-26.47875 0.75055,-1.30605 1.25818,-7.06438 1.2729,-14.43908 0.0187,-9.38711 0.58152,-14.24436 2.39744,-20.69146 l 2.37297,-8.42479 -6.75354,-6.50854 c -3.71444,-3.5797 -8.00426,-7.52663 -9.53292,-8.77094 -1.94608,-1.58408 -2.60471,-2.93037 -2.19677,-4.49035 0.85963,-3.28721 18.92425,-20.26859 23.959862,-22.5231 l 4.33978,-1.94297 -10.602212,-11.05726 c -6.24685,-6.51498 -11.12593,-12.5909 -11.87712,-14.79059 -0.70121,-2.05334 -1.72768,-12.61334 -2.28106,-23.46667 -1.71675,-33.6708 -1.26865,-31.99799 -12.7151,-47.46667 -8.86997,-11.98684 -10.73453,-14.95314 -10.73453,-17.07747 0,-4.14387 -17.67743,3.22307 -28.26666,11.77991 -8.38759,6.77776 -10.40519,7.96423 -13.54329,7.96423 -4.14965,0 -5.26212,-2.66874 -12.07537,-28.96802 C 0.69185798,141.29043 -0.34958202,135.88262 0.68235798,135.22747 1.419748,134.75932 7.543058,134.36628 14.289728,134.35402 c 15.11844,-0.0274 18.21665,-0.85952 27.98469,-7.51551 4.26176,-2.90399 8.40135,-5.28333 9.19909,-5.28742 0.79774,-0.004 4.15774,-2.48196 7.46667,-5.50637 12.30487,-11.24683 19.96688,-11.29576 32.66457,-0.20862 2.92325,2.55247 6.20631,4.64087 7.29568,4.64087 1.08938,0 2.924732,1.08 4.078572,2.4 l 2.0979,2.4 -0.41899,-6.18542 c -0.39017,-5.75986 -0.20521,-6.36531 2.68825,-8.8 1.70899,-1.43802 4.25354,-2.61458 5.65455,-2.61458 1.46052,0 3.03724,-0.91546 3.69566,-2.14574 1.08298,-2.02356 3.06941,-3.28399 13.3267,-8.456031 5.6774,-2.862723 10.9367,-2.817465 14.06459,0.12103 l 2.46874,2.31927 v -2.6264 c 0,-1.44453 -2.20482,-8.848196 -4.89959,-16.452607 C 134.9232,61.434901 130.5564,47.113154 130.5564,44.030619 c 0,-3.658048 4.51597,-7.820328 8.48486,-7.820328 4.61552,0 7.05084,3.00051 9.68741,11.935675 1.26551,4.288713 4.17439,14.037659 6.46418,21.664326 2.2898,7.626667 4.16333,14.738223 4.16341,15.803458 1.6e-4,2.210545 1.68169,5.763125 3.97294,8.393684 1.24778,1.432565 2.07118,1.566665 4.0588,0.661044 2.48981,-1.134433 2.49046,-1.140196 0.44545,-3.930475 -2.71213,-3.70052 -4.61751,-17.789869 -3.69177,-27.298865 1.66119,-17.06334 12.43387,-33.329502 29.15896,-44.028414 14.11762,-9.030927 30.65224,-12.5916448 54.53926,-11.7449838 l 15.86273,0.562244 8.73692,4.6552238 c 16.00712,8.528948 26.22153,20.011025 29.21432,32.839997 2.03115,8.706766 2.58075,9.215046 8.30254,7.67829 2.53,-0.679507 13.24,-3.368347 23.8,-5.975198 10.56,-2.606851 21.12,-5.252607 23.46666,-5.879459 2.34667,-0.626852 24.90667,-6.39131 50.13334,-12.80991 25.22667,-6.418599 50.42667,-12.891182 56,-14.383519 14.29199,-3.826877 19.41471,-4.21524 29.69478,-2.25122 4.89213,0.934646 9.33213,1.969653 9.86667,2.300015 1.93541,1.196151 0.88244,4.364187 -3.74147,11.256819 -4.40868,6.571807 -9.51495,10.551268 -13.5389,10.551268 -1.2769,0 -7.57887,1.94818 -24.94775,7.712299 -3.52,1.168165 -22.72,7.131195 -42.66667,13.251179 -19.94666,6.119984 -45.86666,14.171609 -57.6,17.892499 -23.04307,7.30745 -31.42161,9.750837 -48.1396,14.038701 l -10.80627,2.771614 -0.65468,4.433526 c -0.36007,2.43843 -0.95251,11.393521 -1.31655,19.900191 l -0.66187,15.46667 4.06048,5.14577 c 3.40565,4.31592 4.1324,6.14021 4.50651,11.31211 l 0.44603,6.16635 -4.65036,3.13827 c -2.55769,1.72605 -5.52822,3.47507 -6.60116,3.88669 -1.75074,0.67167 -1.55624,1.20938 1.89656,5.24319 7.29672,8.52459 12.89097,23.36279 12.78374,33.90762 -0.15935,15.66905 -5.4167,31.37936 -17.51725,52.34596 -2.94006,5.09425 -5.34558,9.66252 -5.34558,10.15169 0,0.7056 -7.40999,11.90596 -19.55056,29.55104 -0.55874,0.81209 1.93114,5.98216 6.76868,14.05476 4.20892,7.02355 8.78106,14.99705 10.16032,17.7189 1.52201,3.00354 6.72292,8.92517 13.23132,15.06485 11.76235,11.09599 13.0532,13.83625 7.5983,16.12987 l -3.12529,1.31408 4.83634,7.96776 c 9.30992,15.33788 17.89771,36.44592 17.22203,42.33022 -0.3251,2.83124 -0.59181,2.96408 -5.67447,2.82635 -2.93333,-0.0795 -9.58867,-1.38675 -14.78964,-2.90504 -6.98409,-2.03882 -9.9819,-2.47925 -11.46667,-1.68462 -2.44132,1.30656 -2.46178,1.73744 -0.27542,5.80085 1.66858,3.1011 2.79775,6.62722 4.6113,14.4 0.4791,2.05333 2.87096,11.29323 5.31527,20.53309 2.4443,9.23987 5.09712,21.77415 5.89516,27.85397 1.77147,13.4959 3.62498,17.28176 12.86606,26.27961 3.91643,3.81333 10.61171,11.25333 14.87838,16.53333 4.26669,5.28 13.00553,16.08 19.41966,24 6.41412,7.92 16.09464,20.81536 21.51225,28.65636 5.41761,7.841 12.02544,16.92668 14.68406,20.19043 6.12953,7.52463 9.16649,13.46279 8.74595,17.10094 -0.30532,2.64143 -0.69301,2.84802 -5.24452,2.79476 -5.73542,-0.0671 -11.20659,-3.56607 -24.77724,-15.84564 -14.54671,-13.16279 -46.47022,-45.31818 -49.4267,-49.78573 -2.52754,-3.81936 -15.09007,-15.3948 -15.86265,-14.61625 -0.16654,0.16782 -0.80395,3.66513 -1.41646,7.7718 -1.8529,12.42281 -4.17485,21.90701 -7.83433,32 -3.36632,9.28444 -3.48107,10.14508 -3.49093,26.18228 l -0.0107,16.58228 4.06477,8.23088 c 2.92135,5.91552 6.58669,10.88098 13.02997,17.65177 4.93087,5.1815 9.41626,10.60723 9.96754,12.0572 2.24694,5.90993 -3.80169,23.34799 -13.33904,38.45614 l -2.54953,4.03945 -7.18661,-0.12373 c -3.95265,-0.068 -7.90663,-0.27921 -8.78663,-0.46923 z m 12.94291,-11.30921 c 2.26807,-0.67953 4.12376,-1.83953 4.12376,-2.57777 0,-0.73825 0.36,-1.50228 0.8,-1.69784 0.44,-0.19555 1.64,-1.95445 2.66667,-3.90866 1.38789,-2.64178 1.86293,-6.06161 1.8521,-13.33333 -0.0166,-11.14661 -0.67046,-14.58023 -2.77651,-14.58023 -0.81157,0 -1.47559,-0.39889 -1.47559,-0.88642 0,-0.48753 -1.32,-1.56753 -2.93334,-2.4 -4.31754,-2.22782 -5.6,-3.73169 -5.6,-6.56685 0,-5.92989 -1.14949,-6.2788 -21.37334,-6.48768 l -18.62666,-0.19238 v 9.06667 c 0,8.47284 0.15063,9.08812 2.29969,9.39437 1.46653,0.20899 2.55989,1.36444 3.0179,3.18932 0.39502,1.57388 1.17955,3.14673 1.74341,3.49521 0.56387,0.34849 1.518,3.95329 2.1203,8.01069 1.24007,8.3536 4.05551,15.27696 7.52814,18.51221 2.03741,1.89813 3.73479,2.1982 12.43461,2.1982 5.54131,0 11.9308,-0.55598 14.19886,-1.23551 z m -137.72039,-5.33217 c 1.94746,-0.67889 5.09908,-2.83889 7.00357,-4.8 1.90449,-1.96111 3.98274,-3.56566 4.61832,-3.56566 0.63557,0 1.15559,-0.48 1.15559,-1.06666 0,-0.58667 0.50007,-1.06667 1.11126,-1.06667 0.6112,0 2.06491,-0.88845 3.23046,-1.97432 1.16554,-1.08587 4.69385,-3.27699 7.84068,-4.86913 5.53334,-2.79962 11.28427,-8.00508 11.28427,-10.21398 0,-0.59174 0.47635,-1.0759 1.05855,-1.0759 0.5822,0 2.2622,-1.04656 3.73333,-2.3257 2.47729,-2.15396 2.67478,-3.02032 2.67478,-11.73333 v -9.40764 l -9.86666,0.0685 c -15.07474,0.10464 -21.27148,1.76861 -26.68721,7.16614 -6.33004,6.30878 -10.69577,9.82922 -12.19117,9.83074 -1.39033,10e-4 -6.72162,4.58702 -6.72162,5.78147 0,0.40454 -1.32,2.12881 -2.93334,3.83169 -2.69794,2.8477 -5.55554,3.93004 -15.46666,5.85814 -2.92394,0.56882 -2.93334,0.59955 -2.93334,9.59667 0,8.97863 0.0154,9.02942 2.93334,9.67298 1.61333,0.35583 3.41333,0.80708 4,1.00278 2.78876,0.93028 23.02631,0.38085 26.15585,-0.7101 z m 123.4837,-53.54807 c 1.45034,-1.45034 1.50673,-2.59649 0.41837,-8.50325 -2.63885,-14.32156 -1.23649,-26.37068 5.75293,-49.42944 1.99113,-6.56894 4.37946,-16.17533 5.30741,-21.34755 1.9546,-10.89469 3.30416,-30.20402 2.111,-30.20402 -0.44786,0 -2.45437,1.44 -4.45889,3.2 -3.44819,3.02755 -6.77037,4.1908 -6.77037,2.37063 0,-0.45616 2.79938,-3.29351 6.22086,-6.30521 7.43102,-6.54106 10.47845,-11.79795 8.18037,-14.11134 -1.29607,-1.30468 -2.10686,-1.09381 -5.89924,1.53431 -4.64577,3.21952 -6.82137,5.68136 -9.78571,11.07322 -1.85341,3.37118 -5.11628,4.52026 -5.11628,1.80181 0,-2.7008 8.99322,-14.99421 12.01974,-16.43059 5.40231,-2.56388 6.64442,-5.88043 6.4425,-17.20203 -0.17405,-9.75841 -1.09721,-15.1923 -7.25954,-42.7308 -7.70126,-34.41573 -8.24511,-36.39107 -10.882,-39.52483 -1.45402,-1.72801 -2.98069,-3.14184 -3.39259,-3.14184 -0.41191,0 -1.26991,5.4 -1.90667,12 -1.1979,12.41607 -3.59074,20.44292 -6.41748,21.52763 -2.27708,0.8738 -16.62342,-8.35401 -23.322,-15.0011 -3.03373,-3.01041 -6.66323,-7.53515 -8.06558,-10.05498 -1.40234,-2.51982 -3.07409,-4.75156 -3.715,-4.9594 -0.79339,-0.25729 -1.3923,5.39673 -1.87662,17.71633 -0.67822,17.25176 -0.59195,18.45764 1.85283,25.89955 2.63422,8.01853 5.10026,14.36934 10.27915,26.47197 6.59263,15.40638 6.63667,15.56459 5.87466,21.10502 -0.8932,6.49438 1.63843,13.51068 11.92092,33.03809 3.78708,7.19204 6.69447,13.64986 6.46086,14.35069 -0.55021,1.65062 -7.7699,-8.15388 -13.52,-18.36046 -5.47036,-9.71003 -7.09481,-11.55837 -8.72534,-9.92784 -2.28543,2.28543 -3.25066,18.38402 -2.09817,34.99451 1.27041,18.30996 6.2958,39.76485 13.85232,59.13971 2.38957,6.12684 4.34468,12.69205 4.34468,14.58935 0,2.60463 0.84919,4.1377 3.46666,6.25849 3.127,2.53362 4.13114,2.76135 10.2483,2.32425 4.19083,-0.29947 7.42204,-1.125 8.45792,-2.16088 z m -89.90622,-6.66049 c 2.34667,-0.80266 5.16909,-1.46637 6.27205,-1.47491 2.18432,-0.017 2.15535,-1.46729 -0.30811,-15.4215 -0.61553,-3.48662 -1.62753,-16.68662 -2.24889,-29.33333 -1.53668,-31.27658 -2.6575,-40.9549 -5.95337,-51.40794 -3.33337,-10.57192 -8.7897,-21.83156 -9.94268,-20.51765 -0.44961,0.51236 -1.92784,10.29156 -3.28494,21.73156 -1.35711,11.44 -2.78896,22 -3.1819,23.46667 l -0.71444,2.66667 -1.33447,-2.48361 c -1.02779,-1.91286 -1.07002,-4.11899 -0.18373,-9.6 2.79276,-17.27095 4.44451,-50.8665 2.23152,-45.38745 -0.50255,1.24425 -1.22301,6.28425 -1.60099,11.2 -2.65053,34.46968 -5.1497,43.04646 -4.46923,15.33772 0.42124,-17.15276 0.74113,-19.4385 5.91559,-42.26925 3.00864,-13.27475 5.47026,-26.36552 5.47026,-29.09061 0,-4.67784 -0.43213,-5.41758 -7.73334,-13.23833 -7.77598,-8.32931 -12.46358,-16.25455 -15.33675,-25.92955 -1.63949,-5.52076 -3.02326,-6.55901 -4.12313,-3.09363 -0.36867,1.16159 -3.34856,5.84159 -6.62197,10.4 -3.27342,4.55843 -7.09015,10.08804 -8.48162,12.28804 -1.5017,2.37427 -3.36951,4 -4.59562,4 -2.48205,0 -6.61411,-5.17567 -9.69803,-12.14737 -1.23995,-2.80313 -2.44577,-4.90531 -2.67957,-4.67149 -0.23381,0.2338 0.35003,4.71369 1.29741,9.95532 1.95422,10.81218 2.54384,42.67647 1.04481,56.46354 -0.90175,8.29373 -0.8518,8.60915 1.77901,11.23356 1.48874,1.48512 6.34626,4.52327 10.79447,6.75145 4.44821,2.22818 8.08766,4.73308 8.08766,5.56644 0,2.05971 -2.13132,1.90532 -8.53333,-0.61812 -6.41155,-2.52719 -8.53334,-2.67786 -8.53334,-0.60596 0,2.15712 4.51539,4.99136 14.4,9.03863 13.0925,5.36076 13.00588,6.58518 -0.26666,3.76944 -2.98379,-0.633 -3.46667,-0.44371 -3.46667,1.35896 0,2.83521 11.46368,38.24302 13.98533,43.19644 1.10807,2.17663 2.01467,5.11334 2.01467,6.52603 0,1.46111 2.37673,5.64723 5.51257,9.70925 6.17339,7.99674 6.62563,9.58277 8.65962,30.37015 1.13097,11.5585 1.56395,13.33862 3.42781,14.09279 2.85217,1.15406 17.06948,-0.009 22.4,-1.83196 z m 200.51578,-10.41235 c 1.86802,-1.36594 1.52046,-2.00427 -5.66274,-10.4 -4.20911,-4.91962 -10.29295,-11.88729 -13.51965,-15.48374 -3.2267,-3.59643 -5.86672,-7.22043 -5.86672,-8.05333 0,-0.83289 -0.45669,-1.97104 -1.01488,-2.52923 -0.55819,-0.55818 -2.35819,-3.46564 -4,-6.46102 -1.64181,-2.99538 -7.14635,-9.95469 -12.2323,-15.46512 -5.08595,-5.51044 -11.6893,-12.89898 -14.67412,-16.41898 -2.98481,-3.52 -7.82357,-9.10648 -10.75281,-12.41441 -2.92924,-3.30793 -5.32589,-6.39013 -5.32589,-6.84934 0,-2.49093 -3.84112,-4.73625 -8.10237,-4.73625 -5.11634,0 -6.12859,1.00054 -6.47491,6.4 -0.47445,7.39692 0.7582,11.43826 4.78925,15.70197 2.15674,2.28123 6.0371,6.94238 8.62298,10.35813 2.58589,3.41573 6.28461,7.14442 8.21938,8.28595 1.93476,1.14155 3.84272,3.12067 4.2399,4.39807 0.39719,1.27741 2.41783,4.24255 4.49032,6.58922 8.98859,10.17769 24.50847,26.76674 27.86535,29.78497 2.00744,1.80493 6.56744,5.96193 10.13333,9.23777 10.71842,9.84659 14.59789,11.46865 19.26588,8.05534 z M 247.06317,471.88132 c 0.82354,-0.82353 -12.16394,-23.84811 -18.17375,-32.21898 -1.35684,-1.8899 -5.7191,-5.33551 -9.6939,-7.65692 -7.40428,-4.32433 -13.07453,-9.85364 -16.36397,-15.95724 -1.5001,-2.78343 -2.41779,-3.38267 -4.76206,-3.10954 -2.35534,0.27442 -3.04526,1.03494 -3.6523,4.02601 -0.647,3.18798 -0.31449,4.1275 2.45378,6.93334 1.76122,1.78511 3.84409,4.47055 4.62859,5.96764 0.78451,1.4971 3.74324,4.83138 6.57495,7.4095 20.28395,18.46749 26.54675,24.68641 29.81073,29.60184 2.67648,4.03069 4.40003,5.6 6.15041,5.6 1.33752,0 2.69991,-0.26804 3.02752,-0.59565 z m -57.4686,-53.00435 c 5.84504,-17.95349 5.33329,-32.64385 -0.95537,-27.42472 -0.89285,0.741 -3.04674,1.3068 -4.78641,1.25734 -2.86331,-0.0814 -3.16305,0.23215 -3.16305,3.30879 0,1.86929 0.96,6.75566 2.13333,10.85859 4.339,15.17266 0.69591,12.33152 -4.17694,-3.25748 -3.41712,-10.9319 -5.12269,-14.40335 -9.60548,-19.55054 -2.18702,-2.51117 -3.6972,-3.39509 -4.96762,-2.90758 -4.26845,1.63795 0.76077,24.74893 7.63543,35.08735 3.13543,4.71522 12.15302,14.62825 13.30687,14.62825 0.36984,0 2.4305,-5.4 4.57924,-12 z m 39.97194,7.40709 c 1.8841,-3.94311 2.7993,-16.7489 1.83832,-25.72244 l -0.76823,-7.17372 -4.8293,-2.07008 c -2.65611,-1.13854 -6.21613,-3.0576 -7.91116,-4.26457 -4.45455,-3.17191 -4.86595,-0.78655 -1.41336,8.19487 3.1813,8.27566 5.80025,17.22434 5.74463,19.62885 -0.0704,3.04565 -5.04967,-8.07524 -11.46207,-25.6 -3.54196,-9.68 -7.0021,-19.04 -7.68919,-20.8 l -1.24927,-3.2 -2.01953,6.4 c -2.7118,8.59385 -2.67748,18.59021 0.0823,24 1.17334,2.29993 2.14388,5.0408 2.15676,6.09084 0.0743,6.06003 9.60852,20.03733 17.02275,24.95574 5.66403,3.75738 8.54963,3.63657 10.49726,-0.43949 z m 43.56062,-8.98448 c 2.30658,-5.52042 2.0556,-22.8485 -0.40318,-27.83738 -1.72796,-3.50601 -2.48308,-3.96643 -8.30088,-5.06131 -3.52,-0.66245 -7.72,-1.56837 -9.33333,-2.01315 -2.19731,-0.60579 -2.93334,-0.43063 -2.93334,0.6981 0,1.91542 5.2861,10.27604 11.50876,18.20257 2.65315,3.37962 4.50407,6.46464 4.11312,6.85557 -1.27844,1.27844 -7.1258,-5.25675 -19.74445,-22.06701 l -12.41076,-16.53333 -0.31881,7.34974 c -0.17535,4.04234 0.16347,8.73322 0.75293,10.42418 1.24343,3.56688 9.42809,15.15551 15.48086,21.91926 4.45118,4.97404 17.41398,13.40023 19.05479,12.38616 0.53968,-0.33354 1.68011,-2.27907 2.53429,-4.3234 z m -130.62768,-2.91181 c 10.67179,-13.2008 15.67852,-27.18687 10.33904,-28.88156 -1.23818,-0.39298 -4.11123,-2.39489 -6.38453,-4.44868 l -4.13328,-3.73417 -0.99529,2.61782 c -0.54741,1.4398 -1.33891,8.19781 -1.75889,15.01779 -0.41997,6.81998 -1.17906,12.1432 -1.68684,11.82936 -0.50779,-0.31382 -0.93935,-9.54227 -0.95902,-20.50765 l -0.0357,-19.93704 -3.2677,4 c -1.79722,2.2 -4.12515,4 -5.17315,4 -5.6463,0 -3.59876,25.57919 3.23068,40.35972 1.87543,4.05886 3.66111,6.58425 4.4692,6.32054 0.74022,-0.24156 3.60022,-3.22781 6.35556,-6.63613 z m -39.24223,-9.09262 c 9.63996,-12.67571 19.83859,-30.72244 19.82853,-35.08711 -0.006,-2.66816 -4.03853,-8.6644 -5.82668,-8.6644 -0.87745,0 -1.9086,1.32 -2.29146,2.93333 -2.13492,8.9964 -13.21121,31.82684 -13.21121,27.23094 0,-1.7356 3.82671,-12.27095 7.48286,-20.60116 4.22318,-9.62213 5.49807,-13.82978 4.19033,-13.82978 -0.53784,0 -1.64926,1.60682 -2.46983,3.5707 -1.68111,4.02346 -7.56582,8.16264 -11.604912,8.16264 -3.50207,0 -3.87726,1.75001 -4.70158,21.93005 -0.6395,15.65517 0.0461,20.73661 2.79769,20.73661 0.52407,0 3.136882,-2.87182 5.806262,-6.38182 z m 217.65039,0.0608 c 1.01191,-1.63731 -2.41011,-10.4931 -9.78966,-25.33442 -8.41492,-16.92364 -13.08018,-22.12545 -20.82821,-23.22373 -3.14821,-0.44625 -5.06667,-0.31392 -5.06667,0.34949 0,1.55126 11.93959,20.45218 19.4453,30.78283 3.54662,4.88147 6.21259,9.11122 5.92437,9.39943 -0.89403,0.89404 -15.26207,-14.88512 -20.07846,-22.0504 -6.47476,-9.63247 -10.62882,-14.80218 -11.89408,-14.80218 -1.46269,0 -0.0317,18.34295 1.87237,24 0.78982,2.34667 2.44503,4.98667 3.67825,5.86667 1.23321,0.88 4.3758,3.37589 6.98355,5.54643 2.66633,2.21932 7.19081,4.63513 10.33836,5.52008 3.07835,0.8655 7.99701,2.28371 10.93034,3.15158 6.56065,1.94106 7.70929,2.04858 8.48454,0.7942 z M 188.91236,386.87697 c 5.54027,-6.05907 8.74101,-17.93127 9.58725,-35.56096 0.74491,-15.51849 -0.69165,-23.44195 -4.57056,-25.20929 -5.43194,-2.47496 -6.98614,2.16312 -9.53472,28.45387 -0.90728,9.35932 -1.82815,17.19549 -2.04636,17.41372 -2.22189,2.22187 -1.63636,-18.9545 0.98152,-35.49734 1.50737,-9.52536 1.25168,-11.2 -1.71008,-11.2 -2.6826,0 -3.60613,2.47084 -6.21525,16.62847 -1.19894,6.50565 -2.89496,14.18565 -3.76894,17.06667 -2.0692,6.82094 -2.05672,16.7511 0.0261,20.77887 2.00046,3.86846 9.56433,9.52599 12.73583,9.52599 1.27639,0 3.30823,-1.08 4.51519,-2.4 z m 40.41206,-0.91514 c 1.78009,-1.96975 2.01638,-3.85404 1.9061,-15.2 -0.0744,-7.64821 -1.05708,-18.52986 -2.4,-26.5747 -1.25077,-7.49275 -2.27412,-13.81846 -2.27412,-14.05715 0,-3.36116 -11.19861,-5.35429 -12.40595,-2.20801 -0.71109,1.85308 3.10427,21.73271 6.64826,34.6402 2.48707,9.05813 2.56719,10.43914 0.53263,9.18171 -1.43432,-0.88645 -6.82575,-17.93238 -9.20065,-29.08939 -2.00081,-9.39958 -4.83808,-15.24419 -7.4003,-15.24419 -1.35132,0 -1.4999,1.80588 -0.98732,12 0.7366,14.64939 2.53442,22.43989 7.49984,32.499 3.73018,7.55671 11.55719,16.30101 14.59101,16.30101 0.80218,0 2.37291,-1.01182 3.4905,-2.24848 z m -68.95762,-7.29526 c 1.14239,-1.14239 2.59096,-4.14239 3.21904,-6.66666 0.62808,-2.52428 2.08859,-7.9496 3.24557,-12.05627 2.18452,-7.75384 6.39166,-30.91795 6.39166,-35.19187 0,-1.34561 -0.75925,-2.73791 -1.68724,-3.09401 -2.84907,-1.09329 -7.59433,-0.71958 -8.70913,0.68588 -1.32271,1.66759 -2.84538,8.44017 -5.55679,24.71576 -1.1651,6.99367 -2.61227,13.20967 -3.21594,13.81334 -1.70982,1.70982 -1.39512,-2.34626 1.70137,-21.92812 1.54801,-9.78946 2.54456,-18.50261 2.21457,-19.36256 -0.64733,-1.6869 -9.70028,-5.42025 -16.01718,-6.6053 -3.58736,-0.67299 -3.98651,-0.49007 -5.05833,2.31811 -0.64001,1.67682 -2.0937,10.10269 -3.23042,18.72415 -3.84916,29.19371 -5.7024,24.01575 -2.39553,-6.69306 0.9842,-9.13972 1.48009,-17.42387 1.10197,-18.40922 -0.37811,-0.98536 -1.91868,-2.35254 -3.42348,-3.03817 -2.19543,-1.0003 -3.01573,-0.94579 -4.15177,0.27589 -0.77867,0.83738 -2.77157,9.84285 -4.42866,20.01215 -3.43316,21.06867 -3.01107,26.9688 2.49267,34.8437 7.0865,10.13957 17.16427,2.15905 18.96421,-15.01765 0.69439,-6.6265 3.41275,-23.12164 4.33676,-26.31569 0.29701,-1.02667 1.0581,-1.86667 1.69131,-1.86667 1.67652,0 0.33268,13.4357 -2.7932,27.92644 -2.05614,9.53172 -2.40523,13.13339 -1.65813,17.10763 1.78477,9.49429 7.84231,17.89927 12.90012,17.89927 1.09422,0 2.92416,-0.93468 4.06655,-2.07707 z m 113.08541,0.0139 c 2.9323,-5.47905 0.0548,-18.4298 -7.5165,-33.83026 -7.77193,-15.80842 -15.22979,-23.58887 -21.1315,-22.04553 -2.7362,0.71553 -2.8785,3.2411 -0.38114,6.76479 3.28163,4.63028 20.51073,38.75263 19.8813,39.37507 -1.12695,1.11446 -5.69601,-5.74213 -12.79602,-19.20243 -12.46098,-23.62373 -17.03759,-28.9558 -19.74779,-23.00756 -0.98352,2.15858 -0.66169,5.42216 1.66412,16.87596 1.58589,7.80991 3.36408,15.75243 3.95154,17.65007 1.02325,3.3053 8.24117,10.24622 15.14797,14.56664 8.06667,5.04595 18.9597,6.53107 20.92802,2.85325 z m -164.573,-21.30535 c 3.41819,-5.15902 4.70818,-8.37612 5.53819,-13.81185 1.84008,-12.05038 5.54305,-34.66735 6.18111,-37.75294 0.86218,-4.16931 -1.41649,-3.72392 -3.23678,0.63268 -0.81949,1.9613 -2.7823,8.0813 -4.3618,13.6 -1.57951,5.5187 -3.36602,10.51399 -3.97006,11.10066 -1.46987,1.42765 -0.46228,-3.26856 4.05141,-18.88267 1.98465,-6.86547 3.60846,-13.22547 3.60846,-14.13333 0,-3.18542 -1.81284,-1.5979 -4.50985,3.94933 -8.64948,17.79027 -15.756822,39.28581 -15.756822,47.65518 0,8.03714 3.586462,15.62698 6.933332,14.67266 0.58667,-0.16727 3.07193,-3.33065 5.52281,-7.02972 z m 192.34386,-6.56396 c 0,-0.62289 -3.30715,-4.34289 -7.34923,-8.26667 -7.7799,-7.55221 -11.65435,-13.01936 -21.9841,-31.0213 -3.52,-6.13439 -6.9675,-11.33849 -7.66112,-11.56463 -0.69361,-0.22616 -1.81066,0.61565 -2.48233,1.87066 -0.95942,1.7927 -0.84786,3.21495 0.52042,6.6346 1.91941,4.79708 9.6234,16.61182 17.72144,27.17734 2.87921,3.75651 5.23492,7.26626 5.23492,7.79946 0,2.46842 -3.67596,-0.99144 -10.04802,-9.45733 -11.17422,-14.84599 -13.10036,-16.89077 -14.55457,-15.45106 -1.80938,1.79134 -0.5598,5.57693 3.65022,11.05834 2.00785,2.61421 4.73577,7.77488 6.06208,11.46817 2.53598,7.06187 3.70405,8.16428 10.29325,9.71455 5.90495,1.38928 20.59704,1.41629 20.59704,0.0379 z M 242.5564,320.13138 c 5.57334,-1.19499 10.98667,-2.50256 12.02964,-2.90572 2.49599,-0.96482 4.1346,-4.14623 3.28112,-6.37036 -0.77427,-2.01772 -2.58681,-1.8823 -15.31076,1.14389 -16.3656,3.8923 -64.81315,1.63002 -82.69141,-3.86131 -10.54701,-3.23953 -19.67235,-7.17416 -23.71615,-10.22584 -1.91083,-1.44201 -6.15088,-3.54275 -9.42233,-4.66829 -3.27144,-1.12554 -7.9226,-3.49851 -10.3359,-5.27328 -2.4133,-1.77476 -5.10305,-3.22683 -5.97724,-3.22683 -4.29678,0 13.66116,13.8034 26.07998,20.04644 13.98595,7.03085 37.62121,13.87325 58.06305,16.80924 13.65136,1.96069 35.06319,1.30588 48,-1.46794 z M 99.693188,318.83945 c 1.134772,-0.60731 2.063212,-2.21218 2.063212,-3.56635 0,-3.63415 3.8598,-14.20906 6.33459,-17.35524 2.6774,-3.40377 1.34336,-6.77422 -2.68128,-6.77422 -6.056852,0 -15.386642,7.39888 -15.386642,12.20218 0,0.95675 -0.72169,2.84097 -1.60374,4.18716 -1.49611,2.28334 -1.40662,2.63281 1.33333,5.20691 1.61539,1.51761 3.89707,3.7193 5.07041,4.89263 2.60956,2.60957 2.36329,2.54854 4.87012,1.20693 z M 244.68974,307.90122 c 7.99411,-2.22488 12.95404,-7.8156 26.6958,-30.09092 2.53343,-4.10666 7.3404,-11.54666 10.68217,-16.53333 12.76588,-19.04953 18.6342,-34.74185 20.74241,-55.46667 1.41656,-13.92552 -3.57011,-30.97075 -10.95847,-37.45782 -3.38191,-2.96937 -4.16935,-3.20162 -8.64144,-2.54891 -8.75268,1.27748 -16.60092,0.74 -22.36397,-1.53158 -3.06285,-1.20727 -7.4034,-2.19502 -9.64568,-2.19502 -9.67876,0 -42.15597,21.51634 -68.39657,45.31312 -4.97617,4.51272 -10.36759,8.89572 -11.98092,9.73998 -2.62912,1.37582 -2.93333,1.35438 -2.93333,-0.20679 0,-0.95798 4.60474,-10.93031 10.23278,-22.16072 8.10643,-16.17593 19.02645,-39.59148 23.57543,-50.55226 1.23294,-2.97078 -5.2854,-1.43888 -21.77878,5.11833 -3.0321,1.20545 -3.98544,5.09165 -2.95297,12.03751 0.45052,3.03096 0.87264,7.42403 0.93801,9.7624 0.11299,4.04175 -0.14434,4.39584 -5.21447,7.17508 -8.76328,4.80366 -10.12026,4.013 -10.14967,-5.9139 -0.0208,-7.00761 -1.19706,-9.20411 -3.78078,-7.05982 -5.57618,4.62781 -10.65577,16.86377 -11.38491,27.42449 -0.53261,7.71428 -0.51943,7.76148 3.42704,12.26666 2.17893,2.48742 4.81577,6.335 5.85964,8.55018 1.04387,2.21518 3.80053,5.33518 6.12591,6.93333 2.32539,1.59816 6.39879,4.50378 9.05199,6.45693 4.45456,3.2792 7.28838,4.07827 16.31744,4.6011 2.07846,0.12036 18.92395,-6.06197 20.83172,-7.64527 0.80642,-0.66927 5.59539,-6.81714 10.64215,-13.66194 22.43967,-30.43436 33.5928,-43.28687 33.5928,-38.71127 0,0.51359 -3.38402,5.12957 -7.52005,10.25772 -4.13603,5.12815 -7.27661,9.56736 -6.97907,9.86491 0.29754,0.29755 4.43301,-1.95564 9.18992,-5.00707 10.94086,-7.01828 26.14193,-14.35133 27.72343,-13.3739 0.70133,0.43344 -2.74102,3.0081 -8.20288,6.13521 -16.83537,9.63888 -25.30365,15.10695 -30.4055,19.63323 -2.75496,2.44414 -5.6397,4.84414 -6.41055,5.33333 -2.52171,1.6003 -9.61408,13.36398 -8.6428,14.33526 0.53669,0.53669 4.10172,0.26522 8.35834,-0.63647 4.08238,-0.86477 9.59789,-1.58066 12.2567,-1.59084 2.65882,-0.0107 7.45733,-0.69895 10.66334,-1.53057 4.11079,-1.06633 6.22704,-1.18183 7.17895,-0.39181 3.24669,2.69451 -3.60901,5.42906 -16.80983,6.70497 -11.08541,1.07144 -28.94032,4.99007 -29.5108,6.47674 -0.28702,0.74796 1.43275,4.15642 3.82171,7.57437 9.43402,13.49745 13.95576,26.59143 13.95576,40.41286 0,4.55976 -0.28354,8.00694 -0.63008,7.66039 -0.34655,-0.34655 -1.77513,-6.06655 -3.1746,-12.71111 -1.70813,-8.10993 -3.9495,-14.92754 -6.81878,-20.74081 -4.39221,-8.89878 -13.25371,-19.60688 -16.22567,-19.60688 -0.92056,0 -5.9361,1.40251 -11.14565,3.11669 -11.39462,3.74936 -10.90438,2.18469 -8.44893,26.9661 1.26994,12.81688 2.36841,18.83151 4.33875,23.75657 3.05905,7.64642 3.13938,8.15264 1.17406,7.39847 -2.57365,-0.9876 -6.83715,-10.31314 -8.56958,-18.74421 -0.92368,-4.49518 -1.95447,-13.85518 -2.29063,-20.8 -0.83917,-17.33655 -0.96288,-17.79966 -4.52198,-16.92742 -4.29576,1.05278 -5.53035,2.73448 -9.44935,12.87136 -2.62374,6.7866 -3.5709,10.93016 -3.5709,15.62171 0,4.63359 -0.36576,6.2635 -1.33333,5.94162 -0.73333,-0.24395 -1.63654,-1.84395 -2.00714,-3.55556 -1.477,-6.82169 -0.781,-11.83305 2.95063,-21.24533 5.31182,-13.398 5.57148,-15.78677 1.98636,-18.27334 -1.5807,-1.09633 -4.76765,-3.62824 -7.08213,-5.62646 -2.42495,-2.0936 -4.58414,-3.2236 -5.09546,-2.66667 -1.28684,1.40158 -6.41018,17.41213 -7.51991,23.49985 -0.52134,2.85997 -1.43478,7.11995 -2.02987,9.46662 -0.59509,2.34666 -1.55781,8.94188 -2.13939,14.65605 -1.09841,10.79225 -1.72678,13.00131 -3.40346,11.96506 -3.35144,-2.0713 1.68717,-34.97001 8.80127,-57.46617 l 3.34525,-10.5784 -3.10307,-2.48298 c -1.7067,-1.36563 -3.58308,-2.48189 -4.16975,-2.48056 -2.71729,0.006 -23.9425,35.96508 -28.33813,48.00937 -4.13992,11.34364 -5.79668,14.50112 -6.77679,12.91528 -1.48792,-2.4075 4.89988,-21.00029 11.71719,-34.10494 3.76745,-7.24201 10.2395,-17.9758 14.38234,-23.85288 4.73489,-6.71696 7.41166,-11.51568 7.20724,-12.9206 -0.36329,-2.49696 -6.98915,-7.48525 -12.39206,-9.3294 -4.61747,-1.57607 -5.87147,-0.42588 -13.93465,12.78112 -10.03808,16.44176 -20.629412,38.3623 -23.421712,48.47519 -1.67013,6.04871 -0.0482,9.41482 9.61439,19.95297 14.949772,16.30447 21.495402,20.1337 52.037242,30.44211 2.28946,0.77273 33.77005,3.59139 40.27577,3.60614 3.56588,0.009 9.7082,-1.36111 17.06667,-3.80439 12.7848,-4.24499 43.57049,-19.22889 49.36251,-24.02553 4.69175,-3.88546 11.52875,-7.60342 13.04972,-7.09642 1.50941,0.50314 -13.9482,12.52796 -21.89765,17.03468 -3.3997,1.92736 -9.32262,5.34605 -13.16206,7.59706 -3.83942,2.25102 -13.05786,6.57102 -20.4854,9.60001 l -13.50462,5.50723 h -12.26666 c -6.74667,0 -17.30667,-0.38892 -23.46667,-0.86427 -14.48884,-1.11806 -12.18435,0.65521 3.78247,2.91055 17.68366,2.49786 18.46354,2.53719 44.21753,2.23018 17.5372,-0.20906 25.5798,-0.72579 29.86667,-1.91888 z m -84.34646,-16.42323 c -8.30364,-7.50184 -12.33321,-19.53273 -11.32521,-33.81313 0.60487,-8.56926 1.94146,-14.65671 3.88416,-17.69033 1.96542,-3.06909 2.25158,-0.19445 0.70029,7.03466 -2.61723,12.1964 -2.89064,16.64089 -1.37989,22.4308 1.86399,7.14364 9.39509,19.77412 12.91328,21.657 1.51461,0.81059 2.75383,2.11269 2.75383,2.89356 0,2.53731 -3.09889,1.50555 -7.54646,-2.51256 z m 43.90603,-1.82241 c -0.67923,-0.81843 -1.6541,-4.05843 -2.16638,-7.2 -0.51226,-3.14156 -2.17529,-11.59958 -3.69562,-18.79559 -3.20747,-15.18155 -3.38859,-18.67295 -1.08805,-20.9735 1.84272,-1.84273 7.92381,-2.3105 7.92381,-0.60952 0,0.58667 -0.97506,1.06667 -2.1668,1.06667 -1.19176,0 -2.45268,0.74492 -2.80205,1.6554 -0.5525,1.43979 4.92916,37.37901 6.7027,43.9446 0.72374,2.6793 -0.81165,3.19643 -2.70761,0.91194 z m 67.1071,-33.65146 c 0,-1.14899 4.22806,-4.32715 5.7566,-4.32715 0.55839,0 -0.11207,1.2 -1.48994,2.66667 -2.59047,2.75744 -4.26666,3.40977 -4.26666,1.66048 z m 10.27969,-14.03248 c 2.00111,-2.00111 4.09745,-3.14098 5.31282,-2.88878 1.59652,0.33128 1.08378,1.00793 -2.50465,3.30533 -5.92833,3.79546 -6.87915,3.65442 -2.80817,-0.41655 z m -1.38793,-8.24546 c 3.25245,-3.39481 11.3749,-8.28644 11.3749,-6.85036 0,2.10991 -9.98733,9.86782 -12.70357,9.86782 -1.05873,0 -0.63051,-0.97251 1.32867,-3.01746 z m -3.35224,-2.15104 c 2.2046,-3.11356 15.48309,-17.2315 16.20692,-17.2315 2.22482,0 -0.39452,3.75864 -7.63671,10.95835 -7.87832,7.83212 -11.60612,10.56075 -8.57021,6.27315 z m 0.90856,-8.82099 c -0.0561,-2.01169 2.84508,-6.06517 8.88265,-12.41052 4.96858,-5.22186 8.50096,-6.32758 5.11142,-1.6 -4.43298,6.18294 -13.94669,15.70782 -13.99407,14.01052 z m -0.0481,-12.90758 c 0,-2.13851 16.29986,-17.53668 16.84198,-15.91032 0.45577,1.36729 -14.28697,17.20738 -16.01529,17.20738 -0.45468,0 -0.82669,-0.58368 -0.82669,-1.29706 z m -1.06667,-6.35857 c 0,-1.63822 11.58821,-17.06954 13.8839,-18.48835 2.90727,-1.79678 1.96208,0.90969 -2.49292,7.13835 -5.91682,8.27246 -11.39098,13.72694 -11.39098,11.35 z m 0,-9.33895 c 0,-1.55579 7.677,-12.96685 10.04694,-14.93373 3.00674,-2.49537 3.1212,-0.3478 0.23522,4.41347 -4.26941,7.04364 -10.28216,13.19562 -10.28216,10.52026 z m -1.44691,-10.71066 c 2.81957,-4.77316 9.66917,-12.38714 10.45563,-11.62245 0.85962,0.83582 -5.35318,10.40481 -8.37809,12.90397 -3.35429,2.77132 -4.17321,2.26617 -2.07754,-1.28152 z m -181.118322,42.4447 c 3.02338,-6.85329 7.897392,-16.41254 10.831142,-21.24277 2.93374,-4.83022 5.33409,-9.47048 5.33409,-10.31166 0,-0.8916 -2.55789,0.67868 -6.13334,3.76521 -3.37333,2.91206 -8.157282,6.32111 -10.631002,7.5757 -2.47372,1.25457 -4.93625,3.11946 -5.47229,4.14422 -0.53604,1.02475 -1.18444,8.68484 -1.44088,17.02243 -0.5389,17.52082 -0.64349,17.53409 7.51228,-0.95313 z m 94.797482,-27.49116 c 11.18007,-9.74847 25.00498,-19.91663 40.61348,-29.87099 13.56968,-8.65412 10.69193,-8.42555 -9.1086,0.72345 -5.32205,2.45909 -11.30572,6.53488 -25.07047,17.07682 -3.37333,2.58352 -6.13333,4.21376 -6.13333,3.62276 0,-1.66844 11.70984,-11.57465 20.41464,-17.27023 4.31861,-2.82569 8.81203,-5.89612 9.98536,-6.82317 l 2.13333,-1.68556 -2.13333,-1.31069 c -2.61711,-1.60791 -11.14924,-10.22333 -13.33333,-13.46349 -1.53169,-2.2723 -1.98554,-1.52006 -10.6305,17.61962 -4.96677,10.99629 -11.56677,24.18021 -14.66667,29.29761 -9.10451,15.03 -7.42428,15.47156 7.92942,2.08387 z m -97.377112,4.21837 c 1.59511,0 21.586622,-14.64164 24.485442,-17.93297 2.30097,-2.61252 1.85807,-3.62178 -5.00291,-11.40036 -3.36673,-3.81702 -3.99583,-4.12616 -5.96937,-2.93334 -4.95761,2.99641 -5.546372,1.06774 -2.07184,-6.787 1.77899,-4.02172 2.41325,-8.02735 2.81477,-17.77654 l 0.51831,-12.58499 -4.71766,-4.52031 c -4.735552,-4.53746 -19.071542,-12.6312 -24.749622,-13.97301 -5.01688,-1.18557 -2.87993,1.51596 4.99275,6.31184 9.09493,5.54043 12.26422,8.60411 10.61095,10.25737 -0.91253,0.91254 -3.57552,-0.38153 -10.62518,-5.16328 -16.46709,-11.16953 -18.02314,-11.51896 -20.4387,-4.58966 -1.242,3.56281 0.1203,5.23165 6.38011,7.81571 8.00257,3.30346 17.58551,14.39701 14.79953,17.13243 -0.92346,0.9067 -1.68293,0.63478 -3.02411,-1.08276 -0.98502,-1.26145 -3.17097,-4.07102 -4.85766,-6.2435 -3.53414,-4.55202 -19.56763,-12.57243 -24.08177,-12.04639 -2.31199,0.26942 -1.08513,1.40862 8.21002,7.62335 10.05956,6.72582 16.27179,12.29177 16.27179,14.57897 0,2.79253 -2.79319,1.47792 -9.20408,-4.33189 -3.94825,-3.57805 -8.9934,-7.43139 -11.21144,-8.56295 -4.02485,-2.05332 -13.71781,-2.86992 -13.71781,-1.15567 0,0.49595 3.96,3.38208 8.8,6.41363 4.84,3.03155 9.73656,6.10578 10.88124,6.83162 6.00936,3.81049 6.49061,5.79856 3.74406,15.46667 l -1.29172,4.54697 4.80333,5.13514 c 2.64182,2.82433 6.01004,7.04671 7.48492,9.38307 1.47488,2.33636 5.46249,6.96308 8.86136,10.28161 l 6.17978,6.03369 -2.06482,2.35048 c -1.93029,2.19734 -1.93752,2.30395 -0.11091,1.63628 1.07465,-0.39282 2.56021,-0.71421 3.30124,-0.71421 z m 54.467352,-21.33333 c 2.19748,-6.96335 5.92281,-13.82188 10.79007,-19.86511 l 3.54253,-4.39845 -2.63147,-12.66822 c -1.4473,-6.96752 -2.87884,-13.74822 -3.1812,-15.06822 -0.45236,-1.97491 -1.27258,-2.4 -4.63075,-2.4 -7.77486,0 -9.28916,4.4713 -7.3153,21.6 0.77727,6.74492 0.69616,7.2 -1.2832,7.2 -1.53297,0 -2.41779,-1.09787 -3.22376,-4 -0.61096,-2.2 -1.11353,-4.83086 -1.1168,-5.84635 -0.007,-2.42854 -4.0719,-3.38292 -11.25063,-2.64201 -9.76731,1.00808 -14.23201,4.31784 -12.91312,9.57272 1.60047,6.37679 8.703,13.2896 25.41709,24.73821 3.53063,2.41836 4.16192,3.24857 2.70126,3.55248 -2.79067,0.58061 -17.12337,-8.73953 -24.42097,-15.88024 -4.60525,-4.50623 -6.4793,-5.75772 -6.91636,-4.61877 -0.98898,2.57723 1.64164,7.39552 6.92542,12.68478 5.21593,5.22132 25.46365,16.322 26.89463,14.7448 0.41864,-0.46143 1.5943,-3.47896 2.61256,-6.70562 z M 25.503968,177.70396 c 6.39407,-4.29509 26.61985,-14.72638 27.88629,-14.38215 3.10726,0.8446 7.83281,-3.79782 7.83281,-7.69503 0,-1.6811 -10.81941,-1.07841 -16.61642,0.92561 -8.07476,2.79145 -25.60645,14.67799 -27.15193,18.4091 -1.40803,3.39929 -0.78508,6.31548 1.34911,6.31548 0.75957,0 3.77464,-1.60785 6.70014,-3.57301 z m 147.298322,-3.89955 c 0.71897,-0.71896 -0.42616,-9.76904 -3.47351,-27.45167 -6.17883,-35.8534 -7.79768,-42.75708 -15.88388,-67.737528 -3.84644,-11.882707 -7.65955,-23.934572 -8.47357,-26.781925 -1.85102,-6.474633 -2.46243,-7.084038 -4.43586,-4.421319 -1.12616,1.519525 -1.3896,3.510039 -0.91739,6.931657 0.6972,5.051918 9.03252,36.064261 11.80574,43.924404 1.88759,5.350011 9.41931,41.557691 11.72002,56.342271 2.7269,17.5234 3.57139,20.26667 6.23895,20.26667 1.29082,0 2.82959,-0.48265 3.4195,-1.07256 z M 24.270038,164.69043 c 5.13194,-3.25594 13.46939,-7.70671 18.52767,-9.89063 5.05828,-2.1839 9.37806,-4.51428 9.59951,-5.17862 0.22144,-0.66434 -2.97804,-3.29356 -7.10996,-5.84272 -4.13193,-2.54915 -7.5167,-5.23483 -7.52173,-5.96816 -0.0114,-1.65783 0.4719,-1.70857 -6.4461,0.67664 -4.85454,1.67376 -7.07436,1.85424 -13.27056,1.07897 -10.89611,-1.36334 -11.05017,-1.09815 -8.80402,15.15494 1.62308,11.74459 2.91873,15.88945 4.96692,15.88945 0.40012,0 4.92634,-2.66395 10.05827,-5.91987 z m 246.019702,-3.54602 c 0,-1.09957 -0.73351,-4.07821 -1.63002,-6.61918 -1.61646,-4.58153 -1.39806,-8.06048 0.43489,-6.92766 0.52431,0.32405 1.288,2.39447 1.6971,4.60094 0.91858,4.95442 4.48635,10.94512 6.51836,10.94512 2.03527,0 1.96168,-5.06561 -0.14689,-10.11215 -0.91294,-2.18498 -1.50371,-5.00359 -1.31282,-6.2636 0.29949,-1.9768 0.74053,-1.68164 3.21667,2.15276 5.19741,8.04836 7.21882,6.84404 2.37775,-1.41662 -1.96532,-3.35357 -2.3044,-4.62705 -1.23199,-4.62705 1.95167,0 4.03403,2.47787 8.06766,9.6 l 3.3226,5.86666 0.01,-4.40307 c 0.005,-2.42168 -0.70571,-6.116 -1.58047,-8.2096 -2.80628,-6.71638 0.004,-5.11195 3.51459,2.0062 3.38056,6.8554 5.25428,8.191 7.57251,5.39771 0.936,-1.12781 0.88208,-1.60683 -0.22885,-2.03314 -0.79933,-0.30673 -2.81615,-4.32278 -4.48181,-8.92456 -4.1738,-11.53108 -4.75059,-24.78245 -1.68383,-38.68496 1.21949,-5.528291 2.02943,-10.23924 1.79988,-10.468788 -0.85347,-0.853479 -8.06884,1.061651 -9.21841,2.446787 -0.88229,1.06311 -0.84909,2.38613 0.12769,5.087371 0.72605,2.00784 1.01283,4.45128 0.63731,5.42987 -1.02579,2.67319 -9.11759,5.90626 -14.8486,5.93276 -5.53754,0.0256 -9.80447,-2.84099 -8.66169,-5.81906 0.83669,-2.18039 1.69184,-2.04744 3.97394,0.61787 1.64138,1.91699 2.62818,2.13581 6.80626,1.50927 7.45985,-1.11861 9.8819,-2.3314 9.8819,-4.94794 0,-1.27384 -1.44,-6.811461 -3.2,-12.305824 -1.94869,-6.083429 -3.2,-12.272233 -3.2,-15.826827 0,-5.062016 0.43793,-6.299634 3.29807,-9.320578 2.29187,-2.420728 3.05881,-2.832643 2.51381,-1.350162 -5.16361,14.046069 -4.93454,15.077588 2.70367,12.175291 4.10004,-1.557888 5.9576,-1.792434 7.53021,-0.950801 2.5224,1.349947 2.60405,2.462335 0.42482,5.788242 -1.22636,1.871682 -3.04596,2.727916 -6.93333,3.262565 -2.89882,0.398689 -5.27058,1.106672 -5.27058,1.573294 0,0.466622 0.91422,1.977409 2.03158,3.357306 1.94206,2.39834 2.12204,2.427051 4.08399,0.651503 1.12882,-1.021569 3.02022,-1.8574 4.2031,-1.8574 1.18288,0 3.0296,-0.971178 4.10381,-2.158176 4.12098,-4.553628 0.94163,-22.779245 -4.60804,-26.415521 -3.4608,-2.267603 -18.11891,-2.445947 -26.88111,-0.327061 -10.73914,2.596955 -36.02944,18.234091 -29.4904,18.234091 1.01313,0 3.70647,-0.951149 5.98519,-2.113666 6.64329,-3.389157 20.27445,-7.639856 22.36835,-6.975279 1.4546,0.461673 2.68025,3.725739 5.02533,13.383103 2.81006,11.572235 3.0393,15.124379 0.73822,11.439176 -0.4579,-0.733333 -2.07351,-5.653333 -3.59027,-10.933333 -2.62959,-9.153915 -2.90572,-9.614764 -5.94225,-9.91773 -4.18194,-0.417247 -28.08512,8.855568 -30.62959,11.882212 -1.06449,1.266201 -2.67939,3.982184 -3.58869,6.035518 -0.9093,2.053333 -2.521,4.954966 -3.58156,6.448076 -1.06057,1.49312 -3.19023,5.867001 -4.7326,9.719761 -2.72632,6.81023 -2.77291,7.31083 -1.67561,18.00376 0.62078,6.04933 1.39146,11.26154 1.71262,11.5827 1.46863,1.46863 2.56252,-3.09895 2.01672,-8.42096 -0.55539,-5.41551 -0.47506,-5.70886 1.04454,-3.81469 0.90541,1.1286 1.91996,3.7686 2.25455,5.86667 0.97519,6.11484 1.46883,7.98206 2.55136,9.65047 1.73645,2.67625 2.32521,0.53124 1.19717,-4.36167 -0.59268,-2.57076 -1.08933,-6.57011 -1.10367,-8.88744 -0.0431,-6.95508 1.97832,-3.00465 3.79854,7.42361 1.82986,10.4835 2.95511,13.32305 5.27958,13.32305 1.95379,0 1.95348,-2.169 -0.001,-9.5142 -1.48112,-5.56525 -1.24497,-8.70897 0.51421,-6.8454 0.46361,0.49111 1.60103,3.89891 2.5276,7.57288 0.92657,3.67398 2.66548,8.47398 3.86422,10.66667 l 2.17954,3.98672 -0.6719,-8.8 c -0.44481,-5.82592 -0.29595,-8.8 0.44045,-8.8 0.61178,0 1.4201,2.28 1.79625,5.06667 0.85885,6.36254 3.54048,14.96719 4.93265,15.82759 2.09675,1.29586 2.25787,-0.71651 0.68876,-8.60224 -0.87859,-4.41394 -1.22631,-8.02535 -0.77302,-8.02535 0.4533,0 1.82478,3 3.04774,6.66666 2.33766,7.00881 6.21653,14.22273 7.14709,13.29217 0.30163,-0.30163 -0.20423,-3.08288 -1.12415,-6.18056 -1.89404,-6.37793 -2.07907,-8.44494 -0.75597,-8.44494 0.50413,0 1.9795,3.24 3.27861,7.2 2.26343,6.89951 4.71206,10.93333 6.63678,10.93333 0.49574,0 0.90135,-0.89964 0.90135,-1.99922 z m 2.28612,-27.75044 c -1.67295,-1.06003 -0.8821,-1.65825 3.58055,-2.70843 4.16134,-0.97928 8.23179,-3.63722 7.46649,-4.87552 -0.33081,-0.53526 -1.18611,-0.76673 -1.90066,-0.51434 -0.71454,0.25237 -5.13647,0.91946 -9.82651,1.48242 -7.1282,0.85562 -8.91371,1.47274 -10.88217,3.76121 -1.29515,1.50571 -2.85785,2.73766 -3.47265,2.73766 -3.42529,0 1.64167,-8.78819 5.95601,-10.33016 5.45746,-1.95053 16.81272,-4.77423 21.45949,-5.3363 3.9904,-0.48269 4.53333,-0.29563 4.53333,1.56177 0,1.16058 -0.75033,2.73286 -1.6674,3.49396 -1.48653,1.2337 -1.49133,1.48235 -0.0443,2.29214 2.69958,1.51077 0.83348,3.67602 -5.69202,6.60449 -6.81048,3.05636 -7.39794,3.16947 -9.51016,1.8311 z m -39.69702,-18.98768 c -0.60029,-1.57888 -0.91798,-4.09888 -0.70599,-5.6 0.3683,-2.60793 0.46546,-2.55293 2.1845,1.23642 0.98948,2.18115 1.79905,4.70116 1.79905,5.59999 0,2.65726 -2.09811,1.86579 -3.27756,-1.23641 z m 5.86647,-6.85513 c -1.55436,-2.51502 -2.38724,-8.799071 -1.48184,-11.180431 1.3169,-3.463754 8.766,-8.601263 15.59048,-10.752492 7.52994,-2.373604 8.77882,-1.28189 6.21456,5.432522 -2.02045,5.29047 -3.75909,6.19624 -14.79821,7.70931 l -4.99937,0.68524 0.69719,4.649161 c 0.68414,4.56218 0.23868,5.82142 -1.22281,3.45669 z M 250.6192,94.419807 c 1.96751,-1.447996 1.97468,-1.560969 0.14395,-2.270451 -2.41423,-0.935612 -8.42525,0.716468 -9.01207,2.476892 -0.6232,1.869611 6.26511,1.709251 8.86812,-0.206441 z m 21.80387,6.857153 c 0,-1.760001 0.48,-3.200001 1.06667,-3.200001 0.58667,0 1.06667,1.44 1.06667,3.200001 0,1.76 -0.48,3.2 -1.06667,3.2 -0.58667,0 -1.06667,-1.44 -1.06667,-3.2 z M 238.51071,85.010293 c 0.49388,-1.651404 13.25321,-8.266667 15.94453,-8.266667 3.36094,0 2.1644,1.905558 -2.03217,3.23631 -2.2,0.697631 -6.10046,2.414857 -8.66768,3.816056 -5.37171,2.931894 -5.78711,3.028071 -5.24468,1.214301 z m -3.0416,74.302627 c 10.1099,-2.6183 10.37415,-3.01548 4.11621,-6.18662 -3.02023,-1.53046 -6.17593,-2.78267 -7.01267,-2.78267 -0.83674,0 -1.79146,-0.70391 -2.12159,-1.56424 -0.33014,-0.86033 -3.29158,-3.08313 -6.58097,-4.93954 -7.46008,-4.21021 -8.9251,-6.43252 -10.20676,-15.48271 -0.56218,-3.96969 -1.21773,-7.41321 -1.45679,-7.65226 -0.23905,-0.23905 -1.46223,1.57958 -2.71817,4.04143 -1.25593,2.46183 -4.2396,6.59817 -6.63037,9.19185 -4.64098,5.03487 -4.79529,7.18128 -0.30475,4.23897 3.46843,-2.27261 4.36438,-1.6723 5.1876,3.47585 1.39207,8.70543 11.60594,19.2905 18.66159,19.33977 1.38199,0.01 5.46199,-0.74627 9.06667,-1.67983 z m -56.33784,-12.2365 c 0.38543,-0.62363 -0.15122,-2.07534 -1.19256,-3.226 -1.81674,-2.00747 -1.80718,-2.20753 0.23603,-4.94419 1.17116,-1.56864 5.09614,-4.48005 8.72219,-6.4698 3.62604,-1.98974 6.59281,-4.0546 6.59281,-4.58858 0,-0.53399 -2.04,-0.97356 -4.53334,-0.97684 -6.60707,-0.009 -12.1514,-1.83867 -14.45914,-4.7725 -1.37489,-1.74789 -2.71983,-2.38938 -4.19868,-2.00265 -2.07626,0.54295 -2.11336,0.84532 -0.81084,6.60838 0.75073,3.32167 1.68265,8.28561 2.07091,11.03099 0.97976,6.92766 5.56704,12.58629 7.57262,9.34119 z m -53.37487,-6.99417 c 4.10667,-0.97718 8.07935,-1.93792 8.82819,-2.13499 2.14735,-0.56511 5.70973,-10.0167 5.35705,-14.21313 -0.34947,-4.15823 -3.2174,-5.39216 -3.85158,-1.65716 -1.35719,7.99292 -2.41299,9.99306 -5.821,11.02746 -5.98714,1.81724 -14.50523,2.3252 -15.40673,0.91877 -0.45109,-0.70377 -1.09188,-5.22699 -1.42399,-10.05161 -0.63166,-9.17665 -1.32407,-11.07915 -3.30963,-9.0936 -1.56608,1.56608 0.47818,24.2106 2.39403,26.51907 0.7923,0.95466 2.26464,1.38697 3.55914,1.04505 1.21432,-0.32076 5.56786,-1.38269 9.67452,-2.35986 z m 75.52304,-9.89082 c 3.25039,-3.47492 8.02109,-11.65998 15.6347,-26.82434 13.56637,-27.020714 16.63022,-31.176834 27.88085,-37.820365 11.82895,-6.985027 21.84294,-10.297206 33.10854,-10.950811 11.79324,-0.684215 16.11198,0.170501 20.54984,4.06699 6.28208,5.515741 6.75793,3.600451 0.90304,-3.634727 l -4,-4.943 -9.06667,0.02882 c -14.75609,0.04691 -23.09715,1.602682 -33.97719,6.337398 -11.60801,5.051511 -18.26056,9.369429 -21.85945,14.188131 -1.412,1.890589 -6.30939,10.637432 -10.88308,19.437432 -4.5737,8.800001 -9.72199,18.077962 -11.44065,20.617672 -1.71866,2.53972 -3.56135,6.1986 -4.09486,8.13085 -1.44102,5.2189 -8.76,12.87659 -15.42262,16.1363 -5.56622,2.72329 -8.62437,5.79074 -7.19663,7.21849 1.31646,1.31645 15.32971,-7.14111 19.86418,-11.98884 z m -78.83716,-0.73504 c 1.09248,-2.84697 0.72445,-21.60594 -0.43798,-22.32436 -1.51931,-0.93899 -5.2653,7.77302 -5.2794,12.27827 -0.0227,7.26523 1.19213,11.73333 3.19028,11.73333 1.03381,0 2.171,-0.75925 2.5271,-1.68724 z m 10.63209,-6.97713 c 0.85872,-3.29873 1.89698,-8.68437 2.30725,-11.96808 0.41027,-3.28371 1.40716,-6.51914 2.21528,-7.18983 3.75097,-3.11302 -3.68934,-4.378691 -7.99829,-1.36059 -2.41848,1.69397 -2.48446,2.13396 -2.04428,13.63369 0.63002,16.45952 2.43993,18.71691 5.52004,6.88481 z m 63.85914,-1.69558 c 3.21089,-3.06908 11.77537,-16.43273 12.99589,-20.27825 0.45925,-1.446971 0.14396,-2.385591 -0.94121,-2.802011 -0.89748,-0.34439 -1.63179,-1.88924 -1.63179,-3.432982 0,-1.769837 -1.33987,-4.14668 -3.62666,-6.433478 -2.95421,-2.954208 -4.44393,-3.626666 -8.03426,-3.626666 -11.97485,0 -21.40574,9.349672 -21.40574,21.221397 0,2.91852 0.51054,6.65764 1.13452,8.30917 1.3341,3.53098 5.96972,8.69729 8.99881,10.02899 3.5119,1.54397 9.18857,0.18898 12.51044,-2.98617 z M 185.2526,113.8103 c -4.35586,-5.6294 0.5398,-16.800011 7.3628,-16.800011 3.26556,0 7.4654,4.912871 7.07656,8.277951 -0.4883,4.22564 -3.68345,4.43853 -4.59113,0.3059 -0.92395,-4.20669 -4.02344,-6.019111 -6.33701,-3.70554 -0.92075,0.92074 -1.67408,2.3372 -1.67408,3.1477 0,2.73831 2.44466,6.86238 4.44403,7.49696 1.09282,0.34685 1.71165,1.07607 1.37517,1.62051 -0.89923,1.45499 -6.45769,1.20564 -7.65634,-0.34347 z m -31.84518,8.93318 c 0.31731,-0.5134 -0.16807,-3.11992 -1.07863,-5.79225 -1.33722,-3.92451 -2.49558,-5.2744 -6.02413,-7.02019 -5.05292,-2.49999 -6.59232,-2.03523 -5.65314,1.70673 1.01069,4.0269 3.8471,7.84921 7.45923,10.05196 3.65355,2.228 4.4705,2.39053 5.29667,1.05375 z m 16.79343,-7.57529 c 0.19555,-0.57315 0.19943,-4.60198 0.009,-8.95295 l -0.34695,-7.910831 -2.85305,0.76302 c -3.26156,0.87228 -3.32459,1.392751 -1.26854,10.476201 1.34144,5.92636 3.44979,8.58526 4.45996,5.62456 z m -22.90392,-11.31531 c -3.17183,-2.73 -5.00719,-3.27746 -5.00719,-1.49357 0,1.32495 6.60473,5.46921 7.41727,4.65409 0.3205,-0.32152 -0.76404,-1.74376 -2.41008,-3.16052 z m 72.29663,-22.793594 c 4.51486,-7.493408 9.03473,-13.463872 12.60139,-16.64568 6.30158,-5.621607 17.48348,-11.362196 26.78958,-13.7533 3.46214,-0.88956 6.458,-1.78058 6.65746,-1.980045 0.19947,-0.199465 -2.50308,-3.767164 -6.00565,-7.92822 -4.59337,-5.456925 -7.93538,-8.298991 -11.99079,-10.197044 -8.02852,-3.757582 -31.68652,-11.836221 -32.44392,-11.078817 -0.35046,0.350458 1.34099,3.121704 3.75879,6.158324 2.63296,3.306861 4.39438,6.641669 4.392,8.315124 -0.004,2.97882 -3.02985,8.67758 -6.75805,12.728905 -1.94336,2.111789 -2.29389,3.883282 -2.42722,12.266667 -0.17421,10.953046 -1.67077,17.201493 -5.17139,21.591687 l -2.35915,2.958662 2.58442,4.624039 c 1.42144,2.543221 2.75276,4.624038 2.9585,4.624038 0.20574,0 3.54205,-5.257953 7.41403,-11.68434 z m -2.14854,-14.650599 c 2.10248,-8.376926 20.04217,-26.998396 26.00991,-26.998396 3.70175,0 3.1488,5.439508 -0.78943,7.765878 -1.7,1.004212 -7.88865,6.387704 -13.75256,11.963315 -5.86391,5.575611 -11.00504,10.137475 -11.42473,10.137475 -0.41969,0 -0.43912,-1.290722 -0.0432,-2.868272 z m -41.80369,21.68638 c 3.33065,-3.33065 13.81959,-7.188763 20.7176,-7.620491 7.91871,-0.495609 9.51342,-1.230272 11.42787,-5.2647 2.86246,-6.032159 2.24161,-15.358904 -1.49523,-22.462762 -3.47597,-6.60792 -3.3084,-8.529222 0.65707,-7.533952 3.97428,0.997482 8.44764,-1.948505 10.41148,-6.856619 1.50744,-3.767487 1.54279,-4.786353 0.26968,-7.774311 -3.52566,-8.274652 -12.10255,-11.340727 -21.58921,-7.717735 -11.15418,4.259819 -23.19125,21.063855 -25.93677,36.208365 -2.24183,12.366059 -0.89328,31.537431 2.21838,31.537431 0.44215,0 1.93575,-1.131852 3.31913,-2.515226 z m 153.84841,-8.620201 c 13.49333,-4.343157 29.33333,-9.656118 35.2,-11.806579 5.86667,-2.150462 15.94667,-5.316614 22.4,-7.035895 24.8933,-6.632012 88.10506,-26.161792 97.79533,-30.214659 3.94394,-1.64951 7.27134,-5.218122 7.27134,-7.798437 0,-1.680519 -0.73567,-1.527947 -21.86667,4.534976 -39.18169,11.242042 -63.79264,18.15246 -74.66667,20.965384 -6.45333,1.669365 -20.13333,5.637597 -30.4,8.818291 -15.32096,4.746556 -42.22053,12.334871 -58.13333,16.399294 -2.7309,0.697524 -3.28366,1.437108 -3.77073,5.045195 -0.3139,2.325321 -0.94222,4.827857 -1.39628,5.56119 -0.98303,1.587655 -0.0179,3.474463 1.7633,3.447278 0.69871,-0.01067 12.31038,-3.57288 25.80371,-7.916038 z m -39.9814,1.024507 c -0.9721,-1.171318 -1.82982,-1.298999 -3.33061,-0.495804 -2.86162,1.531497 -2.51944,2.07339 1.30928,2.07339 2.81857,0 3.12932,-0.242534 2.02133,-1.577586 z M 314.8428,67.7363 c 6.29581,-2.020697 18.4218,-5.581 26.94662,-7.911785 8.52482,-2.330784 23.88482,-6.86595 34.13333,-10.078145 10.24852,-3.212195 20.31366,-6.168061 22.36699,-6.568593 3.61134,-0.704441 50.41558,-13.382351 65.6,-17.769137 21.79366,-6.296195 25.06667,-7.489567 25.06667,-9.139556 0,-1.415834 -1.12771,-1.592535 -7.2,-1.128159 -7.08549,0.54186 -62.79716,13.76588 -93.06667,22.090804 -8.50667,2.339561 -19.54667,5.233559 -24.53333,6.431107 -21.84192,5.245338 -51.92661,12.95629 -54.06575,13.857499 -1.70862,0.719833 -2.42181,2.064722 -2.66667,5.028718 -0.26402,3.19595 -0.95058,4.340059 -3.26758,5.4452 -2.88032,1.373829 -3.98448,3.416039 -1.84695,3.416039 0.59752,0 6.23752,-1.653297 12.53334,-3.673992 z M 293.48974,46.259584 c 2.71029,-0.553281 3.2384,-3.758935 0.93427,-5.671189 -0.80615,-0.669045 -6.22648,-1.83079 -12.04518,-2.581657 -6.16494,-0.795544 -11.6444,-2.111124 -13.13161,-3.152805 l -2.55215,-1.787597 3.89641,-1.628022 c 2.14303,-0.895413 5.71183,-1.635373 7.93066,-1.644357 10.19238,-0.04127 8.18822,-3.708401 -5.98618,-10.953266 -12.19029,-6.230742 -20.60534,-7.691387 -38.79478,-6.733819 -13.12936,0.691184 -19.29074,1.768475 -17.23381,3.013262 0.5403,0.326973 5.06237,1.666733 10.04903,2.977245 11.40643,2.997644 24.93983,9.195241 30.2388,13.847797 2.23815,1.965117 5.93761,6.324062 8.22102,9.686541 l 4.15167,6.113599 10.96092,-0.497897 c 6.02851,-0.273844 12.04093,-0.718369 13.36093,-0.987835 z"
       id="path316"
       transform="translate(-0.31636532,-7.5446828)" />
  </g>
</svg>
