<?xml version="1.0" encoding="UTF-8" standalone="no"?>
<!-- Created with Inkscape (http://www.inkscape.org/) -->

<svg
   xmlns:dc="http://purl.org/dc/elements/1.1/"
   xmlns:cc="http://creativecommons.org/ns#"
   xmlns:rdf="http://www.w3.org/1999/02/22-rdf-syntax-ns#"
   xmlns:svg="http://www.w3.org/2000/svg"
   xmlns="http://www.w3.org/2000/svg"
   xmlns:sodipodi="http://sodipodi.sourceforge.net/DTD/sodipodi-0.dtd"
   xmlns:inkscape="http://www.inkscape.org/namespaces/inkscape"
   version="1.1"
   id="svg36937"
   xml:space="preserve"
   width="816"
   height="816"
   viewBox="0 0 816 816"
   sodipodi:docname="lightinblue.svg"
   inkscape:version="0.92.5 (2060ec1f9f, 2020-04-08)"><metadata
     id="metadata36943"><rdf:RDF><cc:Work
         rdf:about=""><dc:format>image/svg+xml</dc:format><dc:type
           rdf:resource="http://purl.org/dc/dcmitype/StillImage" /><dc:title></dc:title></cc:Work></rdf:RDF></metadata><defs
     id="defs36941"><clipPath
       clipPathUnits="userSpaceOnUse"
       id="clipPath36953"><path
         d="M 0,612 H 612 V 0 H 0 Z"
         id="path36951"
         inkscape:connector-curvature="0" /></clipPath><linearGradient
       x1="0"
       y1="0"
       x2="1"
       y2="0"
       gradientUnits="userSpaceOnUse"
       gradientTransform="matrix(283.83261,0,0,-283.83261,-98.887207,306)"
       spreadMethod="pad"
       id="linearGradient36983"><stop
         style="stop-opacity:1;stop-color:#ed1c24"
         offset="0"
         id="stop36967" /><stop
         style="stop-opacity:1;stop-color:#f68712"
         offset="0.12816892"
         id="stop36969" /><stop
         style="stop-opacity:1;stop-color:#f68712"
         offset="0.258427"
         id="stop36971" /><stop
         style="stop-opacity:1;stop-color:#f68712"
         offset="0.26661382"
         id="stop36973" /><stop
         style="stop-opacity:1;stop-color:#fbbc09"
         offset="0.539326"
         id="stop36975" /><stop
         style="stop-opacity:1;stop-color:#fbbc09"
         offset="0.57969548"
         id="stop36977" /><stop
         style="stop-opacity:1;stop-color:#80cc28"
         offset="0.780899"
         id="stop36979" /><stop
         style="stop-opacity:1;stop-color:#00adef"
         offset="1"
         id="stop36981" /></linearGradient><clipPath
       clipPathUnits="userSpaceOnUse"
       id="clipPath36993"><path
         d="M -0.0961914,612 H 397.722 V 0 H -0.0961914 Z"
         id="path36991"
         inkscape:connector-curvature="0" /></clipPath><linearGradient
       x1="0"
       y1="0"
       x2="1"
       y2="0"
       gradientUnits="userSpaceOnUse"
       gradientTransform="matrix(200.85306,0,0,-200.85306,182.51123,306)"
       spreadMethod="pad"
       id="linearGradient37025"><stop
         style="stop-opacity:1;stop-color:#ed1c24"
         offset="0"
         id="stop36999" /><stop
         style="stop-opacity:1;stop-color:#f68712"
         offset="0.08166989"
         id="stop37001" /><stop
         style="stop-opacity:1;stop-color:#f68712"
         offset="0.164671"
         id="stop37003" /><stop
         style="stop-opacity:1;stop-color:#f68712"
         offset="0.16877224"
         id="stop37005" /><stop
         style="stop-opacity:1;stop-color:#fbbc09"
         offset="0.305389"
         id="stop37007" /><stop
         style="stop-opacity:1;stop-color:#fbbc09"
         offset="0.33390797"
         id="stop37009" /><stop
         style="stop-opacity:1;stop-color:#80cc28"
         offset="0.476048"
         id="stop37011" /><stop
         style="stop-opacity:1;stop-color:#00adef"
         offset="0.625749"
         id="stop37013" /><stop
         style="stop-opacity:1;stop-color:#176fc1"
         offset="0.7806872"
         id="stop37015" /><stop
         style="stop-opacity:1;stop-color:#176fc1"
         offset="0.805389"
         id="stop37017" /><stop
         style="stop-opacity:1;stop-color:#5e2590"
         offset="0.94231795"
         id="stop37019" /><stop
         style="stop-opacity:1;stop-color:#5e2590"
         offset="0.997006"
         id="stop37021" /><stop
         style="stop-opacity:1;stop-color:#5e2590"
         offset="1"
         id="stop37023" /></linearGradient><filter
       inkscape:label="Bloom"
       inkscape:menu="Bevels"
       inkscape:menu-tooltip="Soft, cushion-like bevel with matte highlights"
       style="color-interpolation-filters:sRGB;"
       id="filter232"><feGaussianBlur
         result="result1"
         in="SourceAlpha"
         stdDeviation="2.2"
         id="feGaussianBlur208" /><feSpecularLighting
         result="result0"
         specularExponent="18.1"
         specularConstant="2"
         surfaceScale="5"
         id="feSpecularLighting212"><feDistantLight
           azimuth="225"
           elevation="24"
           id="feDistantLight210" /></feSpecularLighting><feComposite
         result="result6"
         operator="in"
         in2="SourceAlpha"
         id="feComposite214" /><feMorphology
         radius="5.7"
         operator="dilate"
         id="feMorphology216" /><feGaussianBlur
         result="result11"
         stdDeviation="5.7"
         id="feGaussianBlur218" /><feDiffuseLighting
         surfaceScale="5"
         result="result3"
         diffuseConstant="2"
         in="result1"
         id="feDiffuseLighting222"><feDistantLight
           elevation="25"
           azimuth="225"
           id="feDistantLight220" /></feDiffuseLighting><feBlend
         result="result7"
         mode="multiply"
         in="result3"
         in2="SourceGraphic"
         id="feBlend224" /><feComposite
         in="result7"
         operator="in"
         in2="SourceAlpha"
         result="result91"
         id="feComposite226" /><feBlend
         result="result9"
         mode="lighten"
         in="result6"
         in2="result91"
         id="feBlend228" /><feComposite
         in="result11"
         in2="result9"
         id="feComposite230" /></filter></defs><sodipodi:namedview
     pagecolor="#ffffff"
     bordercolor="#666666"
     borderopacity="1"
     objecttolerance="10"
     gridtolerance="10"
     guidetolerance="10"
     inkscape:pageopacity="0"
     inkscape:pageshadow="2"
     inkscape:window-width="1565"
     inkscape:window-height="876"
     id="namedview36939"
     showgrid="false"
     inkscape:zoom="0.88325222"
     inkscape:cx="325.23687"
     inkscape:cy="404.54237"
     inkscape:window-x="35"
     inkscape:window-y="24"
     inkscape:window-maximized="1"
     inkscape:current-layer="g36945" /><g
     inkscape:groupmode="layer"
     id="layer1"
     inkscape:label="1"
     style="display:inline;opacity:0.96858639"><rect
       style="fill:#2b2200"
       id="rect184"
       width="823.09442"
       height="821.96228"
       x="-1.1321794"
       y="-2.565732" /></g><g
     inkscape:groupmode="layer"
     id="layer2"
     inkscape:label="2"
     style="display:inline;opacity:0.487"><rect
       style="fill:#000080"
       id="rect187"
       width="818.56573"
       height="820.83008"
       x="1.1321794"
       y="-1.4335525" /></g><g
     id="g36945"
     inkscape:groupmode="layer"
     inkscape:label="wavy-lines-4-publicdomainvectors.org"
     transform="matrix(1.3333333,0,0,-1.3333333,0,816)"
     style="display:inline"><g
       id="g36947"
       style="filter:url(#filter232)"><g
         id="g36949"
         clip-path="url(#clipPath36953)"><g
           id="g36955"><g
             id="g36957"><g
               id="g36963"><g
                 id="g36965"><path
                   d="m 230.194,0 c -23.162,37.427 -39.009,75.832 -37.868,114.619 2.061,67.718 55.17,134.157 102.028,192.777 49.26,61.59 97.179,127.355 95.1,194.669 -1.196,37.574 -17.709,74.534 -40.145,109.935 h -3.604 c 22.718,-35.514 39.517,-72.548 40.71,-110.03 C 388.464,435.685 340.886,370.437 291.978,309.287 244.824,250.297 191.38,183.438 189.288,114.709 188.142,75.765 203.729,37.364 226.628,0 Z m 42.226,0 c -42.658,54.976 -79.984,112.911 -78.253,171.714 2.061,67.718 55.17,134.159 102.027,192.778 49.26,61.59 97.179,127.356 95.101,194.668 -0.566,17.784 -4.564,35.43 -10.996,52.84 h -3.246 c 6.558,-17.468 10.637,-35.151 11.204,-52.935 C 390.304,492.781 342.726,427.533 293.819,366.382 246.665,307.393 193.221,240.534 191.13,171.805 189.39,112.714 226.18,54.868 268.579,0 Z m 29.376,0 c -9.051,11.748 -18.273,23.251 -27.266,34.469 -48.999,61.078 -96.674,126.257 -94.722,192.544 2.062,67.718 55.171,134.158 102.029,192.779 48.659,60.841 96.01,125.754 95.153,192.208 h -3.04 C 374.814,546.531 327.786,482.106 279.461,421.682 232.308,362.692 178.862,295.833 176.771,227.104 174.788,159.787 222.806,94.094 272.156,32.575 280.665,21.961 289.38,11.09 297.959,0 Z m 5.5,0 c -18.521,29.056 -40.974,57.065 -62.16,83.493 -48.998,61.079 -96.672,126.257 -94.721,192.545 2.062,67.719 55.171,134.159 102.027,192.779 36.616,45.781 72.492,93.867 87.643,143.183 h -3.184 C 321.745,563.484 286.27,515.973 250.067,470.708 202.913,411.719 149.47,344.858 147.377,276.129 145.396,208.812 193.411,143.118 242.763,81.601 263.495,55.737 285.448,28.352 303.687,0 Z m -20.393,0 c -20.242,42.964 -53.341,84.254 -83.816,122.271 -48.998,61.077 -96.672,126.254 -94.722,192.543 2.062,67.715 55.171,134.159 102.029,192.78 26.95,33.696 53.499,68.64 71.679,104.406 h -3.412 C 260.624,576.95 234.516,542.616 208.018,509.484 160.864,450.493 107.419,383.631 105.327,314.904 103.347,247.587 151.362,181.893 200.714,120.376 230.767,82.887 263.387,42.192 283.537,0 Z m -41.009,0 c -17.482,52.078 -57.666,102.207 -94.102,147.658 -48.998,61.079 -96.672,126.258 -94.721,192.545 2.061,67.717 55.17,134.158 102.028,192.778 20.537,25.677 40.841,52.08 57.386,79.019 h -3.568 C 196.633,585.741 176.79,559.961 156.723,534.871 109.569,475.881 56.124,409.021 54.032,340.293 52.052,272.976 100.067,207.281 149.419,145.765 185.46,100.804 225.195,51.236 242.683,0 Z M 133.775,0 C 116.981,53.379 75.773,104.785 38.491,151.293 25.211,167.847 12.028,184.704 -0.096,201.8 v -5.225 C 11.375,180.612 23.704,164.873 36.118,149.398 73.012,103.375 113.774,52.526 130.584,0 Z M 9.407,0 C 6.365,5.066 3.188,10.104 -0.096,15.107 v -2.493 c 19.622,46.093 55.05,90.416 87.499,131.013 48.908,61.147 96.486,126.395 94.439,192.681 C 179.683,404.097 126.474,470.425 79.529,528.944 57.914,555.903 36.555,583.662 19.542,612 h 3.546 C 39.857,584.348 60.756,557.211 81.902,530.838 129.144,471.95 182.688,405.203 184.88,336.403 186.958,269.088 139.039,203.324 89.779,141.735 55.845,99.283 18.632,52.728 -0.096,4.557 v 4.97 C 1.937,6.362 3.923,3.187 5.856,0 Z m -9.503,413.582 c 4.18,15.215 6.325,30.543 5.849,45.951 -0.395,12.398 -2.457,24.729 -5.849,36.959 v -13.084 c 1.587,-7.962 2.555,-15.956 2.811,-23.97 0.337,-10.917 -0.672,-21.805 -2.811,-32.652 z m 0,-114.645 c 21.784,36.39 36.411,73.736 35.243,111.572 -1.107,34.78 -15.338,69.035 -35.243,102.015 v -5.948 C 18.205,475.332 31.07,443.043 32.108,410.414 33.209,374.79 19.975,339.464 -0.096,304.913 Z m 0,-99.244 C 42.262,254.659 79.022,312.598 77.196,371.734 75.398,428.198 39.01,483.28 -0.096,533.771 V 528.8 C 37.788,479.543 72.425,426.062 74.158,371.639 75.921,314.566 40.894,258.262 -0.096,204.681 Z M 10.838,612 C 9.695,595.753 5.82,579.608 -0.096,563.602 v 4.943 C 7.486,558.561 15.297,548.671 23.142,538.887 70.086,480.368 123.294,414.04 125.453,346.251 127.5,279.966 79.922,214.718 31.015,153.568 20.744,140.72 10.175,127.498 -0.096,113.965 v -5.039 c 11.008,14.63 22.422,28.909 33.487,42.753 49.259,61.588 97.178,127.351 95.1,194.667 -2.191,68.8 -55.736,135.546 -102.976,194.436 -8.668,10.81 -17.294,21.748 -25.611,32.798 v -0.695 C 4.095,585.858 6.848,598.905 7.79,612 Z M 52.921,0 c 17.021,52.029 57.29,102.406 93.768,148.043 49.26,61.588 97.179,127.352 95.101,194.669 -2.191,68.8 -55.736,135.547 -102.977,194.435 C 119.278,561.512 99.953,586.527 83.9,612 H 80.316 C 96.642,585.848 116.432,560.208 136.44,535.253 183.385,476.733 236.593,410.406 238.753,342.617 240.8,276.328 193.222,211.081 144.313,149.934 107.445,103.811 66.731,52.877 49.724,0 Z m 47.099,0 c 11.344,59.809 57.885,118.034 99.496,170.091 49.259,61.589 97.178,127.352 95.1,194.666 C 292.425,433.56 238.88,500.306 191.64,559.196 177.771,576.492 164.009,594.117 151.448,612 h -3.706 c 12.93,-18.543 27.171,-36.797 41.525,-54.699 C 236.211,498.782 289.419,432.454 291.578,364.663 293.626,298.377 246.048,233.13 197.14,171.982 155.172,119.479 108.22,60.74 96.927,0 Z m 42.188,0 c -0.3,4.433 -0.393,8.871 -0.262,13.315 2.062,67.718 55.171,134.159 102.029,192.777 49.258,61.592 97.178,127.357 95.099,194.669 -2.191,68.803 -55.736,135.549 -102.977,194.436 -4.464,5.568 -8.917,11.169 -13.323,16.803 h -3.852 c 4.888,-6.272 9.838,-12.505 14.802,-18.697 C 280.669,534.784 333.877,468.458 336.036,400.666 338.083,334.383 290.506,269.134 241.599,207.982 194.445,148.993 141.001,82.134 138.907,13.405 138.775,8.93 138.865,4.461 139.161,0 Z m 39.724,0 c -7.175,19.953 -11.132,40.125 -10.534,60.443 2.092,68.727 55.537,135.588 102.691,194.579 48.906,61.149 96.484,126.397 94.437,192.682 -1.816,57.064 -39.805,113.09 -79.782,164.296 h 3.85 C 332.331,560.922 369.741,505.073 371.563,447.799 373.643,380.485 325.724,314.722 276.464,253.133 229.606,194.512 176.497,128.068 174.437,60.353 173.84,40.104 177.875,19.957 185.164,0 Z"
                   style="fill:url(#linearGradient36983);stroke:none"
                   id="path36985"
                   inkscape:connector-curvature="0" /></g></g></g></g><g
           id="g36987"><g
             id="g36989" /><g
             id="g37039"><g
               clip-path="url(#clipPath36993)"
               id="g37037"
               style="opacity:0.19999701"><g
                 id="g37035"><g
                   id="g37033"><g
                     id="g37031"><g
                       id="g37029"><path
                         d="M 341.021,612 C 369.154,571.456 391.397,528.652 392.777,485.249 394.826,418.863 347.248,353.517 298.339,292.275 251.186,233.196 197.742,166.236 195.65,97.404 194.681,64.447 205.66,31.881 222.901,0 h 3.459 c -17.466,31.925 -28.637,64.483 -27.672,97.313 2.061,67.821 55.17,134.361 102.027,193.068 49.262,61.683 97.18,127.547 95.101,194.962 -1.384,43.53 -23.261,86.237 -51.097,126.657 z m 35.449,0 c 10.566,-22.841 17.404,-46.119 18.149,-69.571 2.047,-66.383 -45.531,-131.73 -94.438,-192.972 C 253.027,290.377 199.583,223.417 197.492,154.586 195.935,101.646 225.213,49.702 261.756,0 h 3.775 C 228.7,49.802 198.98,101.801 200.529,154.495 c 2.06,67.818 55.17,134.36 102.027,193.068 49.26,61.683 97.178,127.547 95.1,194.961 -0.746,23.475 -7.452,46.709 -17.839,69.476 z m 2.612,0 c 0.628,-4.721 1.027,-9.45 1.178,-14.188 C 382.309,531.43 334.73,466.083 285.823,404.839 238.669,345.761 185.224,278.8 183.132,209.968 181.15,142.551 229.167,76.758 278.518,15.146 282.515,10.152 286.557,5.104 290.61,0 h 3.878 c -4.555,5.749 -9.104,11.432 -13.596,17.044 -48.999,61.169 -96.674,126.446 -94.723,192.833 2.063,67.82 55.172,134.361 102.03,193.069 49.26,61.684 97.178,127.548 95.1,194.961 -0.15,4.708 -0.539,9.406 -1.151,14.093 z m -31.477,0 C 336.139,557.669 296.735,504.41 256.429,453.939 209.275,394.86 155.832,327.9 153.739,259.066 151.757,191.647 199.773,125.855 249.125,64.246 265.571,43.697 282.787,22.189 298.307,0 h 3.705 C 286.13,22.875 268.41,45.014 251.498,66.142 202.5,127.313 154.826,192.588 156.777,258.977 c 2.061,67.82 55.171,134.361 102.027,193.068 40.696,50.959 80.478,104.771 91.908,159.955 z m -54.726,0 C 275.16,571.148 245.031,531.155 214.379,492.774 167.226,433.694 113.781,366.731 111.689,297.901 109.708,230.482 157.724,164.689 207.076,103.08 232.964,70.736 260.757,36.013 280.843,0 h 3.478 c -20.262,36.75 -48.546,72.086 -74.872,104.977 -48.998,61.169 -96.672,126.445 -94.722,192.834 2.062,67.817 55.171,134.36 102.028,193.07 31.089,38.928 61.643,79.521 79.433,121.119 z m -63.885,0 C 211.283,579.973 187.347,548.581 163.084,518.199 115.931,459.12 62.486,392.159 60.394,323.328 58.414,255.909 106.429,190.116 155.781,128.507 187.714,88.61 222.546,45.093 242.235,0 h 3.316 c -19.747,45.885 -55.05,89.99 -87.397,130.403 -48.998,61.17 -96.672,126.447 -94.721,192.834 2.061,67.819 55.17,134.361 102.027,193.069 24.722,30.955 49.106,62.965 67.002,95.694 z m -62.101,0 C 149.918,583.42 128.438,555.383 106.696,528.157 59.542,469.078 6.098,402.118 4.006,333.286 2.025,265.866 50.041,200.074 99.392,138.464 133.671,95.64 171.29,48.641 189.933,0 h 3.254 C 174.525,49.461 136.446,97.033 101.765,140.361 52.767,201.531 5.093,266.807 7.044,333.195 c 2.061,67.82 55.17,134.361 102.028,193.069 22.208,27.809 44.145,56.468 61.349,85.736 z M -0.096,188.417 C 13.112,169.332 27.736,150.552 42.48,132.146 75.272,91.178 111.121,46.391 130.49,0 h 3.293 C 114.37,47.192 78.055,92.562 44.853,134.042 29.211,153.57 13.704,173.517 -0.096,193.783 Z m 0,-91.179 C 24.383,66.479 49.425,33.771 67.21,0 h 3.433 C 52.125,35.599 25.564,69.945 -0.096,102.113 Z m 0,-95.51 C 0.292,1.151 0.679,0.576 1.064,0 H 4.718 C 3.136,2.385 1.53,4.762 -0.096,7.131 Z m 0,375.705 c 8.257,21.546 12.888,43.348 12.211,65.315 -0.601,18.907 -5.069,37.658 -12.211,56.135 V 490.01 C 5.269,474.359 8.571,458.546 9.077,442.652 9.659,423.784 6.231,405 -0.096,386.369 Z M 75.658,612 C 57.668,573.094 29.054,535.105 -0.096,498.576 v 1.785 C 21.528,465.83 37.315,429.902 38.47,393.555 39.684,354.229 23.481,315.267 -0.096,277.308 v -5.707 c 25.239,39.687 42.884,80.574 41.605,122.049 -1.222,38.441 -18.428,76.242 -41.605,112.393 v -2.591 C 27.782,538.507 54.912,574.88 72.306,612 Z M -0.096,174.321 c 44.965,57.47 85.571,118.323 83.654,180.495 -1.895,59.606 -42.223,117.675 -83.654,170.442 V 520.33 C 40.185,468.758 78.69,412.265 80.52,354.721 82.374,294.625 43.559,235.38 -0.096,179.261 Z m 0,-91.282 c 12.923,17.654 26.635,34.833 39.848,51.39 49.26,61.681 97.179,127.545 95.101,194.961 -2.191,68.903 -55.736,135.75 -102.977,194.729 -10.9,13.614 -21.735,27.434 -31.972,41.421 v -5.126 C 9.44,547.525 19.444,534.786 29.503,522.221 76.448,463.613 129.656,397.186 131.815,329.295 133.862,262.908 86.284,197.563 37.376,136.322 24.971,120.78 12.13,104.69 -0.096,88.166 Z M 16.535,612 C 34.652,577.863 60.089,544.492 85.891,512.263 132.835,453.655 186.044,387.228 188.204,319.337 190.25,252.951 142.672,187.605 93.765,126.364 62.453,87.131 28.366,44.423 8.385,0 h 3.339 c 19.906,43.643 53.521,85.76 84.417,124.471 49.26,61.681 97.179,127.545 95.101,194.961 C 189.05,388.335 135.505,455.182 88.264,514.161 62.919,545.818 37.929,578.572 19.979,612 Z m 60.351,0 C 94.707,580.063 118.594,548.819 142.802,518.582 189.747,459.974 242.955,393.546 245.115,325.656 247.162,259.267 199.583,193.922 150.675,132.682 117.88,91.593 82.043,46.692 62.554,0 h 3.3 c 19.441,45.896 54.813,90.212 87.197,130.787 49.26,61.682 97.179,127.544 95.101,194.963 C 245.96,394.654 192.416,461.501 145.175,520.479 121.43,550.139 97.995,580.762 80.37,612 Z m 66.117,0 c 15.615,-24.278 34.026,-48.104 52.625,-71.337 C 242.573,482.055 295.781,415.627 297.94,347.733 299.988,281.349 252.41,216.004 203.501,154.764 165.566,107.233 123.56,54.603 107.496,0 h 3.172 c 16.09,53.738 57.657,105.819 95.209,152.869 49.26,61.682 97.179,127.543 95.101,194.96 -2.191,68.906 -55.736,135.753 -102.977,194.731 -18.123,22.637 -36.064,45.836 -51.381,69.44 z m 69.648,0 c 8.88,-11.897 18.134,-23.663 27.434,-35.281 C 287.031,518.112 340.238,451.687 342.398,383.792 344.445,317.409 296.868,252.062 247.96,190.818 201.733,132.9 149.459,67.406 145.451,0 h 3.046 c 4.034,66.385 55.937,131.414 101.839,188.925 49.259,61.684 97.18,127.549 95.1,194.962 -2.192,68.907 -55.736,135.753 -102.978,194.729 -8.807,11.002 -17.571,22.135 -26.013,33.384 z m 73.269,0 c 44.193,-55.532 89.984,-117.391 92.006,-181.004 2.078,-67.416 -45.84,-133.278 -95.1,-194.961 C 235.968,177.326 182.859,110.784 180.798,42.966 180.375,28.581 182.283,14.249 186.028,0 h -3.142 c -3.682,14.261 -5.55,28.621 -5.126,43.056 2.092,68.831 55.536,135.793 102.691,194.874 48.906,61.239 96.485,126.586 94.438,192.97 -2.015,63.366 -48.497,125.454 -92.853,181.1 z"
                         style="fill:url(#linearGradient37025);stroke:none"
                         id="path37027"
                         inkscape:connector-curvature="0" /></g></g></g></g></g></g></g></g></g></g></svg>