<svg xmlns="http://www.w3.org/2000/svg" width="503.523" height="684.666" xmlns:v="https://vecta.io/nano"><path d="M288.107 684.073c-.88-.19-4.843-.653-8.806-1.028l-7.206-.683-5.861-6.909c-5.86-6.908-5.861-6.909-5.861-14.212 0-6.398-.47-8.134-3.79-14.008-2.084-3.687-5.204-8.628-6.933-10.979s-3.144-5.365-3.144-6.698 1.951-6.24 4.336-10.906c5.837-11.421 5.84-15.186.029-31.051-8.829-24.101-11.272-40.831-9.709-66.478.614-10.077 1.868-22.402 2.787-27.389 3.109-16.881-.302-24.447-19.237-42.667l-21.574-21.067c-4.854-4.84-9.313-8.8-9.908-8.8-1.176 0-1.682 1.725-3.128 10.667-.522 3.227-2.306 10.667-3.964 16.533-4.01 14.187-3.81 18.019 1.525 29.262a278.9 278.9 0 0 1 7.72 18.205l4.929 12.727c1.481 3.507 1.984 9.476 4.498 53.406 1.061 18.543 3.179 30.433 9.12 51.2 1.93 6.747 3.838 14.537 4.239 17.313.712 4.923.608 5.176-4.278 10.4-2.755 2.945-5.392 5.354-5.861 5.354-1.25 0-14.859 9.356-18.588 12.779-3.959 3.634-19.076 13.279-24.051 15.345-2.025.841-7.312 2.136-11.747 2.876-7.971 1.331-8.174 1.307-17.569-2.092-11.102-4.017-12.233-4.794-12.233-8.4 0-3.516 3.203-19.481 4.351-21.686.49-.941 4.391-3.528 8.67-5.75 12.382-6.429 21.62-12.951 24.755-17.476 5.553-8.013 5.943-30.199.708-40.279-3.365-6.48-14.571-36.268-22.215-59.052-5.026-14.982-8.117-22.441-11.05-26.667-7.843-11.3-9.088-19.645-6.533-43.787.94-8.886 1.009-15.413.247-23.416-1.371-14.39-7.1-38.398-9.163-38.398-.827 0-1.503.369-1.503.82s-1.8 3.073-4 5.828c-7.636 9.561-9.867 12.906-9.867 14.795 0 2.67-2.052 3.629-3.872 1.81-3.126-3.126-7.854-18.169-7.858-25.001-.004-7.45 2.744-23.227 4.613-26.479.751-1.306 1.258-7.064 1.273-14.439.019-9.387.582-14.244 2.397-20.691l2.373-8.425-6.754-6.509c-3.714-3.58-8.004-7.527-9.533-8.771-1.946-1.584-2.605-2.93-2.197-4.49.86-3.287 18.924-20.269 23.96-22.523l4.34-1.943-10.602-11.057c-6.247-6.515-11.126-12.591-11.877-14.791-.701-2.053-1.728-12.613-2.281-23.467-1.717-33.671-1.269-31.998-12.715-47.467-8.87-11.987-10.735-14.953-10.735-17.077 0-4.144-17.677 3.223-28.267 11.78-8.388 6.778-10.405 7.964-13.543 7.964-4.15 0-5.262-2.669-12.075-28.968C.375 133.746-.666 128.338.366 127.683c.737-.468 6.861-.861 13.607-.873 15.118-.027 18.217-.86 27.985-7.516 4.262-2.904 8.401-5.283 9.199-5.287s4.158-2.482 7.467-5.506c12.305-11.247 19.967-11.296 32.665-.209 2.923 2.552 6.206 4.641 7.296 4.641s2.925 1.08 4.079 2.4l2.098 2.4-.419-6.185c-.39-5.76-.205-6.365 2.688-8.8 1.709-1.438 4.254-2.615 5.655-2.615 1.461 0 3.037-.915 3.696-2.146 1.083-2.024 3.069-3.284 13.327-8.456 5.677-2.863 10.937-2.817 14.065.121l2.469 2.319v-2.626c0-1.445-2.205-8.848-4.9-16.453-6.734-19.002-11.1-33.323-11.1-36.406 0-3.658 4.516-7.82 8.485-7.82 4.616 0 7.051 3.001 9.687 11.936l6.464 21.664c2.29 7.627 4.163 14.738 4.163 15.803 0 2.211 1.682 5.763 3.973 8.394 1.248 1.433 2.071 1.567 4.059.661 2.49-1.134 2.49-1.14.445-3.93-2.712-3.701-4.618-17.79-3.692-27.299 1.661-17.063 12.434-33.33 29.159-44.028C207.102 2.835 223.637-.726 247.524.121l15.863.562 8.737 4.655c16.007 8.529 26.222 20.011 29.214 32.84 2.031 8.707 2.581 9.215 8.303 7.678 2.53-.68 13.24-3.368 23.8-5.975l23.467-5.879 50.133-12.81 56-14.384c14.292-3.827 19.415-4.215 29.695-2.251 4.892.935 9.332 1.97 9.867 2.3 1.935 1.196.882 4.364-3.741 11.257-4.409 6.572-9.515 10.551-13.539 10.551-1.277 0-7.579 1.948-24.948 7.712-3.52 1.168-22.72 7.131-42.667 13.251l-57.6 17.892c-23.043 7.307-31.422 9.751-48.14 14.039l-10.806 2.772-.655 4.434c-.36 2.438-.953 11.394-1.317 19.9l-.662 15.467 4.06 5.146c3.406 4.316 4.132 6.14 4.507 11.312l.446 6.166-4.65 3.138c-2.558 1.726-5.528 3.475-6.601 3.887-1.751.672-1.556 1.209 1.897 5.243 7.297 8.525 12.891 23.363 12.784 33.908-.159 15.669-5.417 31.379-17.517 52.346-2.94 5.094-5.346 9.663-5.346 10.152 0 .706-7.41 11.906-19.551 29.551-.559.812 1.931 5.982 6.769 14.055 4.209 7.024 8.781 14.997 10.16 17.719 1.522 3.004 6.723 8.925 13.231 15.065 11.762 11.096 13.053 13.836 7.598 16.13l-3.125 1.314 4.836 7.968c9.31 15.338 17.898 36.446 17.222 42.33-.325 2.831-.592 2.964-5.674 2.826-2.933-.079-9.589-1.387-14.79-2.905-6.984-2.039-9.982-2.479-11.467-1.685-2.441 1.307-2.462 1.737-.275 5.801 1.669 3.101 2.798 6.627 4.611 14.4.479 2.053 2.871 11.293 5.315 20.533s5.097 21.774 5.895 27.854c1.771 13.496 3.625 17.282 12.866 26.28 3.916 3.813 10.612 11.253 14.878 16.533l19.42 24c6.414 7.92 16.095 20.815 21.512 28.656s12.025 16.927 14.684 20.19c6.13 7.525 9.166 13.463 8.746 17.101-.305 2.641-.693 2.848-5.245 2.795-5.735-.067-11.207-3.566-24.777-15.846-14.547-13.163-46.47-45.318-49.427-49.786-2.528-3.819-15.09-15.395-15.863-14.616-.167.168-.804 3.665-1.416 7.772-1.853 12.423-4.175 21.907-7.834 32-3.366 9.284-3.481 10.145-3.491 26.182l-.011 16.582 4.065 8.231c2.921 5.916 6.587 10.881 13.03 17.652 4.931 5.182 9.416 10.607 9.968 12.057 2.247 5.91-3.802 23.348-13.339 38.456l-2.55 4.039-7.187-.124c-3.953-.068-7.907-.279-8.787-.469zm12.943-11.309c2.268-.68 4.124-1.84 4.124-2.578s.36-1.502.8-1.698 1.64-1.954 2.667-3.909c1.388-2.642 1.863-6.062 1.852-13.333-.017-11.147-.67-14.58-2.777-14.58-.812 0-1.476-.399-1.476-.886s-1.32-1.568-2.933-2.4c-4.318-2.228-5.6-3.732-5.6-6.567 0-5.93-1.149-6.279-21.373-6.488l-18.627-.192v9.067c0 8.473.151 9.088 2.3 9.394 1.467.209 2.56 1.364 3.018 3.189.395 1.574 1.18 3.147 1.743 3.495s1.518 3.953 2.12 8.011c1.24 8.354 4.056 15.277 7.528 18.512 2.037 1.898 3.735 2.198 12.435 2.198 5.541 0 11.931-.556 14.199-1.236zm-137.72-5.332c1.947-.679 5.099-2.839 7.004-4.8s3.983-3.566 4.618-3.566 1.156-.48 1.156-1.067.5-1.067 1.111-1.067 2.065-.888 3.23-1.974 4.694-3.277 7.841-4.869c5.533-2.8 11.284-8.005 11.284-10.214a1.07 1.07 0 0 1 1.059-1.076c.582 0 2.262-1.047 3.733-2.326 2.477-2.154 2.675-3.02 2.675-11.733v-9.408l-9.867.068c-15.075.105-21.271 1.769-26.687 7.166-6.33 6.309-10.696 9.829-12.191 9.831-1.39.001-6.722 4.587-6.722 5.781 0 .405-1.32 2.129-2.933 3.832-2.698 2.848-5.556 3.93-15.467 5.858-2.924.569-2.933.6-2.933 9.597 0 8.979.015 9.029 2.933 9.673 1.613.356 3.413.807 4 1.003 2.789.93 23.026.381 26.156-.71zm123.484-53.548c1.45-1.45 1.507-2.596.418-8.503-2.639-14.322-1.236-26.371 5.753-49.429 1.991-6.569 4.379-16.175 5.307-21.348 1.955-10.895 3.304-30.204 2.111-30.204-.448 0-2.454 1.44-4.459 3.2-3.448 3.028-6.77 4.191-6.77 2.371 0-.456 2.799-3.294 6.221-6.305 7.431-6.541 10.478-11.798 8.18-14.111-1.296-1.305-2.107-1.094-5.899 1.534-4.646 3.22-6.821 5.681-9.786 11.073-1.853 3.371-5.116 4.52-5.116 1.802 0-2.701 8.993-14.994 12.02-16.431 5.402-2.564 6.644-5.88 6.442-17.202-.174-9.758-1.097-15.192-7.26-42.731-7.701-34.416-8.245-36.391-10.882-39.525-1.454-1.728-2.981-3.142-3.393-3.142s-1.27 5.4-1.907 12c-1.198 12.416-3.591 20.443-6.417 21.528-2.277.874-16.623-8.354-23.322-15.001-3.034-3.01-6.663-7.535-8.066-10.055s-3.074-4.752-3.715-4.959c-.793-.257-1.392 5.397-1.877 17.716-.678 17.252-.592 18.458 1.853 25.9 2.634 8.019 5.1 14.369 10.279 26.472 6.593 15.406 6.637 15.565 5.875 21.105-.893 6.494 1.638 13.511 11.921 33.038 3.787 7.192 6.694 13.65 6.461 14.351-.55 1.651-7.77-8.154-13.52-18.36-5.47-9.71-7.095-11.558-8.725-9.928-2.285 2.285-3.251 18.384-2.098 34.995 1.27 18.31 6.296 39.765 13.852 59.14 2.39 6.127 4.345 12.692 4.345 14.589 0 2.605.849 4.138 3.467 6.258 3.127 2.534 4.131 2.761 10.248 2.324 4.191-.299 7.422-1.125 8.458-2.161zm-89.906-6.66c2.347-.803 5.169-1.466 6.272-1.475 2.184-.017 2.155-1.467-.308-15.422-.616-3.487-1.628-16.687-2.249-29.333-1.537-31.277-2.657-40.955-5.953-51.408-3.333-10.572-8.79-21.832-9.943-20.518-.45.512-1.928 10.292-3.285 21.732s-2.789 22-3.182 23.467l-.714 2.667-1.334-2.484c-1.028-1.913-1.07-4.119-.184-9.6 2.793-17.271 4.445-50.866 2.232-45.387-.503 1.244-1.223 6.284-1.601 11.2-2.651 34.47-5.15 43.046-4.469 15.338.421-17.153.741-19.438 5.916-42.269 3.009-13.275 5.47-26.366 5.47-29.091 0-4.678-.432-5.418-7.733-13.238-7.776-8.329-12.464-16.255-15.337-25.93-1.639-5.521-3.023-6.559-4.123-3.094-.369 1.162-3.349 5.842-6.622 10.4s-7.09 10.088-8.482 12.288c-1.502 2.374-3.37 4-4.596 4-2.482 0-6.614-5.176-9.698-12.147-1.24-2.803-2.446-4.905-2.68-4.671s.35 4.714 1.297 9.955c1.954 10.812 2.544 42.676 1.045 56.464-.902 8.294-.852 8.609 1.779 11.234 1.489 1.485 6.346 4.523 10.794 6.751s8.088 4.733 8.088 5.566c0 2.06-2.131 1.905-8.533-.618-6.412-2.527-8.533-2.678-8.533-.606 0 2.157 4.515 4.991 14.4 9.039 13.093 5.361 13.006 6.585-.267 3.769-2.984-.633-3.467-.444-3.467 1.359 0 2.835 11.464 38.243 13.985 43.196 1.108 2.177 2.015 5.113 2.015 6.526 0 1.461 2.377 5.647 5.513 9.709 6.173 7.997 6.626 9.583 8.66 30.37 1.131 11.558 1.564 13.339 3.428 14.093 2.852 1.154 17.069-.009 22.4-1.832zm200.516-10.412c1.868-1.366 1.52-2.004-5.663-10.4l-13.52-15.484c-3.227-3.596-5.867-7.22-5.867-8.053s-.457-1.971-1.015-2.529-2.358-3.466-4-6.461-7.146-9.955-12.232-15.465-11.689-12.899-14.674-16.419l-10.753-12.414c-2.929-3.308-5.326-6.39-5.326-6.849 0-2.491-3.841-4.736-8.102-4.736-5.116 0-6.129 1.001-6.475 6.4-.474 7.397.758 11.438 4.789 15.702 2.157 2.281 6.037 6.942 8.623 10.358s6.285 7.144 8.219 8.286 3.843 3.121 4.24 4.398 2.418 4.243 4.49 6.589c8.989 10.178 24.508 26.767 27.865 29.785l10.133 9.238c10.718 9.847 14.598 11.469 19.266 8.055zM246.747 464.337c.824-.824-12.164-23.848-18.174-32.219-1.357-1.89-5.719-5.336-9.694-7.657-7.404-4.324-13.075-9.854-16.364-15.957-1.5-2.783-2.418-3.383-4.762-3.11-2.355.274-3.045 1.035-3.652 4.026-.647 3.188-.314 4.127 2.454 6.933 1.761 1.785 3.844 4.471 4.629 5.968s3.743 4.831 6.575 7.409c20.284 18.467 26.547 24.686 29.811 29.602 2.676 4.031 4.4 5.6 6.15 5.6 1.338 0 2.7-.268 3.028-.596zm-57.469-53.004c5.845-17.953 5.333-32.644-.955-27.425-.893.741-3.047 1.307-4.786 1.257-2.863-.081-3.163.232-3.163 3.309 0 1.869.96 6.756 2.133 10.859 4.339 15.173.696 12.332-4.177-3.257-3.417-10.932-5.123-14.403-9.605-19.551-2.187-2.511-3.697-3.395-4.968-2.908-4.268 1.638.761 24.749 7.635 35.087 3.135 4.715 12.153 14.628 13.307 14.628.37 0 2.43-5.4 4.579-12zm39.972 7.407c1.884-3.943 2.799-16.749 1.838-25.722l-.768-7.174-4.829-2.07c-2.656-1.139-6.216-3.058-7.911-4.265-4.455-3.172-4.866-.787-1.413 8.195 3.181 8.276 5.8 17.224 5.745 19.629-.07 3.046-5.05-8.075-11.462-25.6l-7.689-20.8-1.249-3.2-2.02 6.4c-2.712 8.594-2.677 18.59.082 24 1.173 2.3 2.144 5.041 2.157 6.091.074 6.06 9.609 20.037 17.023 24.956 5.664 3.757 8.55 3.637 10.497-.439zm43.561-8.984c2.307-5.52 2.056-22.848-.403-27.837-1.728-3.506-2.483-3.966-8.301-5.061-3.52-.662-7.72-1.568-9.333-2.013-2.197-.606-2.933-.431-2.933.698 0 1.915 5.286 10.276 11.509 18.203 2.653 3.38 4.504 6.465 4.113 6.856-1.278 1.278-7.126-5.257-19.744-22.067l-12.411-16.533-.319 7.35c-.175 4.042.163 8.733.753 10.424 1.243 3.567 9.428 15.156 15.481 21.919 4.451 4.974 17.414 13.4 19.055 12.386.54-.334 1.68-2.279 2.534-4.323zm-130.628-2.912c10.672-13.201 15.679-27.187 10.339-28.882-1.238-.393-4.111-2.395-6.385-4.449l-4.133-3.734-.995 2.618c-.547 1.44-1.339 8.198-1.759 15.018s-1.179 12.143-1.687 11.829-.939-9.542-.959-20.508l-.036-19.937-3.268 4c-1.797 2.2-4.125 4-5.173 4-5.646 0-3.599 25.579 3.231 40.36 1.875 4.059 3.661 6.584 4.469 6.321.74-.242 3.6-3.228 6.356-6.636zm-39.242-9.093c9.64-12.676 19.839-30.722 19.829-35.087-.006-2.668-4.039-8.664-5.827-8.664-.877 0-1.909 1.32-2.291 2.933-2.135 8.996-13.211 31.827-13.211 27.231 0-1.736 3.827-12.271 7.483-20.601 4.223-9.622 5.498-13.83 4.19-13.83-.538 0-1.649 1.607-2.47 3.571-1.681 4.023-7.566 8.163-11.605 8.163-3.502 0-3.877 1.75-4.702 21.93-.639 15.655.046 20.737 2.798 20.737.524 0 3.137-2.872 5.806-6.382zm217.65.061c1.012-1.637-2.41-10.493-9.79-25.334-8.415-16.924-13.08-22.125-20.828-23.224-3.148-.446-5.067-.314-5.067.349 0 1.551 11.94 20.452 19.445 30.783 3.547 4.881 6.213 9.111 5.924 9.399-.894.894-15.262-14.885-20.078-22.05-6.475-9.632-10.629-14.802-11.894-14.802-1.463 0-.032 18.343 1.872 24 .79 2.347 2.445 4.987 3.678 5.867s4.376 3.376 6.984 5.546c2.666 2.219 7.191 4.635 10.338 5.52l10.93 3.152c6.561 1.941 7.709 2.049 8.485.794zm-131.995-18.479c5.54-6.059 8.741-17.931 9.587-35.561.745-15.518-.692-23.442-4.571-25.209-5.432-2.475-6.986 2.163-9.535 28.454-.907 9.359-1.828 17.195-2.046 17.414-2.222 2.222-1.636-18.954.982-35.497 1.507-9.525 1.252-11.2-1.71-11.2-2.683 0-3.606 2.471-6.215 16.628-1.199 6.506-2.895 14.186-3.769 17.067-2.069 6.821-2.057 16.751.026 20.779 2 3.868 9.564 9.526 12.736 9.526 1.276 0 3.308-1.08 4.515-2.4zm40.412-.915c1.78-1.97 2.016-3.854 1.906-15.2-.074-7.648-1.057-18.53-2.4-26.575l-2.274-14.057c0-3.361-11.199-5.354-12.406-2.208-.711 1.853 3.104 21.733 6.648 34.64 2.487 9.058 2.567 10.439.533 9.182-1.434-.886-6.826-17.932-9.201-29.089-2.001-9.4-4.838-15.244-7.4-15.244-1.351 0-1.5 1.806-.987 12 .737 14.649 2.534 22.44 7.5 32.499 3.73 7.557 11.557 16.301 14.591 16.301.802 0 2.373-1.012 3.49-2.248zm-68.958-7.295c1.142-1.142 2.591-4.142 3.219-6.667s2.089-7.95 3.246-12.056c2.185-7.754 6.392-30.918 6.392-35.192 0-1.346-.759-2.738-1.687-3.094-2.849-1.093-7.594-.72-8.709.686-1.323 1.668-2.845 8.44-5.557 24.716-1.165 6.994-2.612 13.21-3.216 13.813-1.71 1.71-1.395-2.346 1.701-21.928 1.548-9.789 2.545-18.503 2.215-19.363-.647-1.687-9.7-5.42-16.017-6.605-3.587-.673-3.987-.49-5.058 2.318-.64 1.677-2.094 10.103-3.23 18.724-3.849 29.194-5.702 24.016-2.396-6.693.984-9.14 1.48-17.424 1.102-18.409s-1.919-2.353-3.423-3.038c-2.195-1-3.016-.946-4.152.276-.779.837-2.772 9.843-4.429 20.012-3.433 21.069-3.011 26.969 2.493 34.844 7.087 10.14 17.164 2.159 18.964-15.018.694-6.627 3.413-23.122 4.337-26.316.297-1.027 1.058-1.867 1.691-1.867 1.677 0 .333 13.436-2.793 27.926-2.056 9.532-2.405 13.133-1.658 17.108 1.785 9.494 7.842 17.899 12.9 17.899 1.094 0 2.924-.935 4.067-2.077zm113.085.014c2.932-5.479.055-18.43-7.517-33.83-7.772-15.808-15.23-23.589-21.131-22.046-2.736.716-2.879 3.241-.381 6.765 3.282 4.63 20.511 38.753 19.881 39.375-1.127 1.114-5.696-5.742-12.796-19.202-12.461-23.624-17.038-28.956-19.748-23.008-.984 2.159-.662 5.422 1.664 16.876 1.586 7.81 3.364 15.752 3.952 17.65 1.023 3.305 8.241 10.246 15.148 14.567 8.067 5.046 18.96 6.531 20.928 2.853zM108.563 349.83c3.418-5.159 4.708-8.376 5.538-13.812l6.181-37.753c.862-4.169-1.416-3.724-3.237.633-.819 1.961-2.782 8.081-4.362 13.6s-3.366 10.514-3.97 11.101c-1.47 1.428-.462-3.269 4.051-18.883 1.985-6.865 3.608-13.225 3.608-14.133 0-3.185-1.813-1.598-4.51 3.949-8.649 17.79-15.757 39.286-15.757 47.655 0 8.037 3.586 15.627 6.933 14.673.587-.167 3.072-3.331 5.523-7.03zm192.344-6.564c0-.623-3.307-4.343-7.349-8.267-7.78-7.552-11.654-13.019-21.984-31.021-3.52-6.134-6.967-11.338-7.661-11.565s-1.811.616-2.482 1.871c-.959 1.793-.848 3.215.52 6.635 1.919 4.797 9.623 16.612 17.721 27.177 2.879 3.757 5.235 7.266 5.235 7.799 0 2.468-3.676-.991-10.048-9.457-11.174-14.846-13.1-16.891-14.555-15.451-1.809 1.791-.56 5.577 3.65 11.058 2.008 2.614 4.736 7.775 6.062 11.468 2.536 7.062 3.704 8.164 10.293 9.715 5.905 1.389 20.597 1.416 20.597.038zm-58.667-30.68c5.573-1.195 10.987-2.503 12.03-2.906 2.496-.965 4.135-4.146 3.281-6.37-.774-2.018-2.587-1.882-15.311 1.144-16.366 3.892-64.813 1.63-82.691-3.861-10.547-3.24-19.672-7.174-23.716-10.226-1.911-1.442-6.151-3.543-9.422-4.668s-7.923-3.499-10.336-5.273-5.103-3.227-5.977-3.227c-4.297 0 13.661 13.803 26.08 20.046 13.986 7.031 37.621 13.873 58.063 16.809 13.651 1.961 35.063 1.306 48-1.468zm-142.863-1.292c1.135-.607 2.063-2.212 2.063-3.566 0-3.634 3.86-14.209 6.335-17.355 2.677-3.404 1.343-6.774-2.681-6.774-6.057 0-15.387 7.399-15.387 12.202 0 .957-.722 2.841-1.604 4.187-1.496 2.283-1.407 2.633 1.333 5.207l5.07 4.893c2.61 2.61 2.363 2.549 4.87 1.207zm144.997-10.938c7.994-2.225 12.954-7.816 26.696-30.091 2.533-4.107 7.34-11.547 10.682-16.533 12.766-19.05 18.634-34.742 20.742-55.467 1.417-13.926-3.57-30.971-10.958-37.458-3.382-2.969-4.169-3.202-8.641-2.549-8.753 1.277-16.601.74-22.364-1.532-3.063-1.207-7.403-2.195-9.646-2.195-9.679 0-42.156 21.516-68.397 45.313-4.976 4.513-10.368 8.896-11.981 9.74-2.629 1.376-2.933 1.354-2.933-.207 0-.958 4.605-10.93 10.233-22.161 8.106-16.176 19.026-39.591 23.575-50.552 1.233-2.971-5.285-1.439-21.779 5.118-3.032 1.205-3.985 5.092-2.953 12.038.451 3.031.873 7.424.938 9.762.113 4.042-.144 4.396-5.214 7.175-8.763 4.804-10.12 4.013-10.15-5.914-.021-7.008-1.197-9.204-3.781-7.06-5.576 4.628-10.656 16.864-11.385 27.424-.533 7.714-.519 7.761 3.427 12.267 2.179 2.487 4.816 6.335 5.86 8.55s3.801 5.335 6.126 6.933 6.399 4.504 9.052 6.457c4.455 3.279 7.288 4.078 16.317 4.601 2.078.12 18.924-6.062 20.832-7.645.806-.669 5.595-6.817 10.642-13.662 22.44-30.434 33.593-43.287 33.593-38.711 0 .514-3.384 5.13-7.52 10.258s-7.277 9.567-6.979 9.865 4.433-1.956 9.19-5.007c10.941-7.018 26.142-14.351 27.723-13.374.701.433-2.741 3.008-8.203 6.135-16.835 9.639-25.304 15.107-30.405 19.633-2.755 2.444-5.64 4.844-6.411 5.333-2.522 1.6-9.614 13.364-8.643 14.335.537.537 4.102.265 8.358-.636 4.082-.865 9.598-1.581 12.257-1.591s7.457-.699 10.663-1.531c4.111-1.066 6.227-1.182 7.179-.392 3.247 2.695-3.609 5.429-16.81 6.705-11.085 1.071-28.94 4.99-29.511 6.477-.287.748 1.433 4.156 3.822 7.574 9.434 13.497 13.956 26.591 13.956 40.413 0 4.56-.284 8.007-.63 7.66s-1.775-6.067-3.175-12.711c-1.708-8.11-3.95-14.928-6.819-20.741-4.392-8.899-13.254-19.607-16.226-19.607-.921 0-5.936 1.403-11.146 3.117-11.395 3.749-10.904 2.185-8.449 26.966 1.27 12.817 2.368 18.832 4.339 23.757 3.059 7.646 3.139 8.153 1.174 7.398-2.574-.988-6.837-10.313-8.57-18.744-.924-4.495-1.954-13.855-2.291-20.8-.839-17.337-.963-17.8-4.522-16.927-4.296 1.053-5.53 2.734-9.449 12.871-2.624 6.787-3.571 10.93-3.571 15.622 0 4.634-.366 6.264-1.333 5.942-.733-.244-1.637-1.844-2.007-3.556-1.477-6.822-.781-11.833 2.951-21.245 5.312-13.398 5.571-15.787 1.986-18.273-1.581-1.096-4.768-3.628-7.082-5.626-2.425-2.094-4.584-3.224-5.095-2.667-1.287 1.402-6.41 17.412-7.52 23.5-.521 2.86-1.435 7.12-2.03 9.467s-1.558 8.942-2.139 14.656c-1.098 10.792-1.727 13.001-3.403 11.965-3.351-2.071 1.687-34.97 8.801-57.466l3.345-10.578-3.103-2.483c-1.707-1.366-3.583-2.482-4.17-2.481-2.717.006-23.943 35.965-28.338 48.009-4.14 11.344-5.797 14.501-6.777 12.915-1.488-2.408 4.9-21 11.717-34.105 3.767-7.242 10.24-17.976 14.382-23.853 4.735-6.717 7.412-11.516 7.207-12.921-.363-2.497-6.989-7.485-12.392-9.329-4.617-1.576-5.871-.426-13.935 12.781-10.038 16.442-20.629 38.362-23.422 48.475-1.67 6.049-.048 9.415 9.614 19.953 14.95 16.304 21.495 20.134 52.037 30.442 2.289.773 33.77 3.591 40.276 3.606 3.566.009 9.708-1.361 17.067-3.804 12.785-4.245 43.57-19.229 49.363-24.026 4.692-3.885 11.529-7.603 13.05-7.096 1.509.503-13.948 12.528-21.898 17.035l-13.162 7.597c-3.839 2.251-13.058 6.571-20.485 9.6l-13.505 5.507h-12.267c-6.747 0-17.307-.389-23.467-.864-14.489-1.118-12.184.655 3.782 2.911 17.684 2.498 18.464 2.537 44.218 2.23 17.537-.209 25.58-.726 29.867-1.919zm-84.346-16.423c-8.304-7.502-12.333-19.533-11.325-33.813.605-8.569 1.941-14.657 3.884-17.69 1.965-3.069 2.252-.194.7 7.035-2.617 12.196-2.891 16.641-1.38 22.431 1.864 7.144 9.395 19.774 12.913 21.657 1.515.811 2.754 2.113 2.754 2.894 0 2.537-3.099 1.506-7.546-2.513zm43.906-1.822c-.679-.818-1.654-4.058-2.166-7.2s-2.175-11.6-3.696-18.796c-3.207-15.182-3.389-18.673-1.088-20.974 1.843-1.843 7.924-2.31 7.924-.61 0 .587-.975 1.067-2.167 1.067s-2.453.745-2.802 1.655c-.553 1.44 4.929 37.379 6.703 43.945.724 2.679-.812 3.196-2.708.912zm67.107-33.651c0-1.149 4.228-4.327 5.757-4.327.558 0-.112 1.2-1.49 2.667-2.59 2.757-4.267 3.41-4.267 1.66zm10.28-14.032c2.001-2.001 4.097-3.141 5.313-2.889 1.597.331 1.084 1.008-2.505 3.305-5.928 3.795-6.879 3.654-2.808-.417zm-1.388-8.245c3.252-3.395 11.375-8.286 11.375-6.85 0 2.11-9.987 9.868-12.704 9.868-1.059 0-.631-.973 1.329-3.017zm-3.352-2.151c2.205-3.114 15.483-17.232 16.207-17.232 2.225 0-.395 3.759-7.637 10.958-7.878 7.832-11.606 10.561-8.57 6.273zm.909-8.821c-.056-2.012 2.845-6.065 8.883-12.411 4.969-5.222 8.501-6.328 5.111-1.6-4.433 6.183-13.947 15.708-13.994 14.011zm-.048-12.908c0-2.139 16.3-17.537 16.842-15.91.456 1.367-14.287 17.207-16.015 17.207-.455 0-.827-.584-.827-1.297zm-1.067-6.359c0-1.638 11.588-17.07 13.884-18.488 2.907-1.797 1.962.91-2.493 7.138-5.917 8.272-11.391 13.727-11.391 11.35zm0-9.339c0-1.556 7.677-12.967 10.047-14.934 3.007-2.495 3.121-.348.235 4.413-4.269 7.044-10.282 13.196-10.282 10.52zm-1.447-10.711c2.82-4.773 9.669-12.387 10.456-11.622.86.836-5.353 10.405-8.378 12.904-3.354 2.771-4.173 2.266-2.078-1.282zM93.808 218.338c3.023-6.853 7.897-16.413 10.831-21.243s5.334-9.47 5.334-10.312c0-.892-2.558.679-6.133 3.765-3.373 2.912-8.157 6.321-10.631 7.576s-4.936 3.119-5.472 4.144-1.184 8.685-1.441 17.022c-.539 17.521-.643 17.534 7.512-.953zm94.797-27.491c11.18-9.748 25.005-19.917 40.613-29.871 13.57-8.654 10.692-8.426-9.109.723-5.322 2.459-11.306 6.535-25.07 17.077-3.373 2.584-6.133 4.214-6.133 3.623 0-1.668 11.71-11.575 20.415-17.27 4.319-2.826 8.812-5.896 9.985-6.823l2.133-1.686-2.133-1.311c-2.617-1.608-11.149-10.223-13.333-13.463-1.532-2.272-1.986-1.52-10.631 17.62-4.967 10.996-11.567 24.18-14.667 29.298-9.105 15.03-7.424 15.472 7.929 2.084zm-97.377 4.218c1.595 0 21.587-14.642 24.485-17.933 2.301-2.613 1.858-3.622-5.003-11.4-3.367-3.817-3.996-4.126-5.969-2.933-4.958 2.996-5.546 1.068-2.072-6.787 1.779-4.022 2.413-8.027 2.815-17.777l.518-12.585-4.718-4.52c-4.736-4.537-19.072-12.631-24.75-13.973-5.017-1.186-2.88 1.516 4.993 6.312 9.095 5.54 12.264 8.604 10.611 10.257-.913.913-3.576-.382-10.625-5.163-16.467-11.17-18.023-11.519-20.439-4.59-1.242 3.563.12 5.232 6.38 7.816 8.003 3.303 17.586 14.397 14.8 17.132-.923.907-1.683.635-3.024-1.083l-4.858-6.244c-3.534-4.552-19.568-12.572-24.082-12.046-2.312.269-1.085 1.409 8.21 7.623 10.06 6.726 16.272 12.292 16.272 14.579 0 2.793-2.793 1.478-9.204-4.332-3.948-3.578-8.993-7.431-11.211-8.563-4.025-2.053-13.718-2.87-13.718-1.156 0 .496 3.96 3.382 8.8 6.414l10.881 6.832c6.009 3.81 6.491 5.799 3.744 15.467l-1.292 4.547 4.803 5.135c2.642 2.824 6.01 7.047 7.485 9.383s5.462 6.963 8.861 10.282l6.18 6.034-2.065 2.35c-1.93 2.197-1.938 2.304-.111 1.636 1.075-.393 2.56-.714 3.301-.714zm54.467-21.333c2.197-6.963 5.923-13.822 10.79-19.865l3.543-4.398-2.631-12.668-3.181-15.068c-.452-1.975-1.273-2.4-4.631-2.4-7.775 0-9.289 4.471-7.315 21.6.777 6.745.696 7.2-1.283 7.2-1.533 0-2.418-1.098-3.224-4-.611-2.2-1.114-4.831-1.117-5.846-.007-2.429-4.072-3.383-11.251-2.642-9.767 1.008-14.232 4.318-12.913 9.573 1.6 6.377 8.703 13.29 25.417 24.738 3.531 2.418 4.162 3.249 2.701 3.552-2.791.581-17.123-8.74-24.421-15.88-4.605-4.506-6.479-5.758-6.916-4.619-.989 2.577 1.642 7.396 6.925 12.685 5.216 5.221 25.464 16.322 26.895 14.745.419-.461 1.594-3.479 2.613-6.706zm-120.508-3.573c6.394-4.295 26.62-14.726 27.886-14.382 3.107.845 7.833-3.798 7.833-7.695 0-1.681-10.819-1.078-16.616.926-8.075 2.791-25.606 14.678-27.152 18.409-1.408 3.399-.785 6.315 1.349 6.315.76 0 3.775-1.608 6.7-3.573zm147.298-3.9c.719-.719-.426-9.769-3.474-27.452-6.179-35.853-7.798-42.757-15.884-67.738l-8.474-26.782c-1.851-6.475-2.462-7.084-4.436-4.421-1.126 1.52-1.39 3.51-.917 6.932.697 5.052 9.033 36.064 11.806 43.924 1.888 5.35 9.419 41.558 11.72 56.342 2.727 17.523 3.571 20.267 6.239 20.267 1.291 0 2.83-.483 3.419-1.073zm-148.532-9.114c5.132-3.256 13.469-7.707 18.528-9.891s9.378-4.514 9.6-5.179-2.978-3.294-7.11-5.843-7.517-5.235-7.522-5.968c-.011-1.658.472-1.709-6.446.677-4.855 1.674-7.074 1.854-13.271 1.079-10.896-1.363-11.05-1.098-8.804 15.155 1.623 11.745 2.919 15.889 4.967 15.889.4 0 4.926-2.664 10.058-5.92zm246.02-3.546c0-1.1-.734-4.078-1.63-6.619-1.616-4.582-1.398-8.06.435-6.928.524.324 1.288 2.394 1.697 4.601.919 4.954 4.486 10.945 6.518 10.945s1.962-5.066-.147-10.112c-.913-2.185-1.504-5.004-1.313-6.264.299-1.977.741-1.682 3.217 2.153 5.197 8.048 7.219 6.844 2.378-1.417-1.965-3.354-2.304-4.627-1.232-4.627 1.952 0 4.034 2.478 8.068 9.6l3.323 5.867.01-4.403c.005-2.422-.706-6.116-1.58-8.21-2.806-6.716.004-5.112 3.515 2.006 3.381 6.855 5.254 8.191 7.573 5.398.936-1.128.882-1.607-.229-2.033-.799-.307-2.816-4.323-4.482-8.925-4.174-11.531-4.751-24.782-1.684-38.685 1.219-5.528 2.029-10.239 1.8-10.469-.853-.853-8.069 1.062-9.218 2.447-.882 1.063-.849 2.386.128 5.087.726 2.008 1.013 4.451.637 5.43-1.026 2.673-9.118 5.906-14.849 5.933-5.538.026-9.804-2.841-8.662-5.819.837-2.18 1.692-2.047 3.974.618 1.641 1.917 2.628 2.136 6.806 1.509 7.46-1.119 9.882-2.331 9.882-4.948 0-1.274-1.44-6.811-3.2-12.306-1.949-6.083-3.2-12.272-3.2-15.827 0-5.062.438-6.3 3.298-9.321 2.292-2.421 3.059-2.833 2.514-1.35-5.164 14.046-4.935 15.078 2.704 12.175 4.1-1.558 5.958-1.792 7.53-.951 2.522 1.35 2.604 2.462.425 5.788-1.226 1.872-3.046 2.728-6.933 3.263-2.899.399-5.271 1.107-5.271 1.573s.914 1.977 2.032 3.357c1.942 2.398 2.122 2.427 4.084.652 1.129-1.022 3.02-1.857 4.203-1.857s3.03-.971 4.104-2.158c4.121-4.554.942-22.779-4.608-26.416-3.461-2.268-18.119-2.446-26.881-.327-10.739 2.597-36.029 18.234-29.49 18.234 1.013 0 3.706-.951 5.985-2.114 6.643-3.389 20.274-7.64 22.368-6.975 1.455.462 2.68 3.726 5.025 13.383 2.81 11.572 3.039 15.124.738 11.439-.458-.733-2.074-5.653-3.59-10.933-2.63-9.154-2.906-9.615-5.942-9.918-4.182-.417-28.085 8.856-30.63 11.882-1.064 1.266-2.679 3.982-3.589 6.036s-2.521 4.955-3.582 6.448-3.19 5.867-4.733 9.72c-2.726 6.81-2.773 7.311-1.676 18.004.621 6.049 1.391 11.262 1.713 11.583 1.469 1.469 2.563-3.099 2.017-8.421-.555-5.416-.475-5.709 1.045-3.815.905 1.129 1.92 3.769 2.255 5.867.975 6.115 1.469 7.982 2.551 9.65 1.736 2.676 2.325.531 1.197-4.362-.593-2.571-1.089-6.57-1.104-8.887-.043-6.955 1.978-3.005 3.799 7.424 1.83 10.483 2.955 13.323 5.28 13.323 1.954 0 1.953-2.169-.001-9.514-1.481-5.565-1.245-8.709.514-6.845.464.491 1.601 3.899 2.528 7.573s2.665 8.474 3.864 10.667l2.18 3.987-.672-8.8c-.445-5.826-.296-8.8.44-8.8.612 0 1.42 2.28 1.796 5.067.859 6.363 3.54 14.967 4.933 15.828 2.097 1.296 2.258-.717.689-8.602-.879-4.414-1.226-8.025-.773-8.025s1.825 3 3.048 6.667c2.338 7.009 6.217 14.223 7.147 13.292.302-.302-.204-3.083-1.124-6.181-1.894-6.378-2.079-8.445-.756-8.445.504 0 1.979 3.24 3.279 7.2 2.263 6.9 4.712 10.933 6.637 10.933.496 0 .901-.9.901-1.999zm2.286-27.75c-1.673-1.06-.882-1.658 3.581-2.708 4.161-.979 8.232-3.637 7.466-4.876-.331-.535-1.186-.767-1.901-.514s-5.136.919-9.827 1.482c-7.128.856-8.914 1.473-10.882 3.761-1.295 1.506-2.858 2.738-3.473 2.738-3.425 0 1.642-8.788 5.956-10.33 5.457-1.951 16.813-4.774 21.459-5.336 3.99-.483 4.533-.296 4.533 1.562 0 1.161-.75 2.733-1.667 3.494-1.487 1.234-1.491 1.482-.044 2.292 2.7 1.511.833 3.676-5.692 6.604-6.81 3.056-7.398 3.169-9.51 1.831zm-39.697-18.988c-.6-1.579-.918-4.099-.706-5.6.368-2.608.465-2.553 2.184 1.236.989 2.181 1.799 4.701 1.799 5.6 0 2.657-2.098 1.866-3.278-1.236zm5.866-6.855c-1.554-2.515-2.387-8.799-1.482-11.18 1.317-3.464 8.766-8.601 15.59-10.752 7.53-2.374 8.779-1.282 6.215 5.433-2.02 5.29-3.759 6.196-14.798 7.709l-4.999.685.697 4.649c.684 4.562.239 5.821-1.223 3.457zm11.874-13.131c1.968-1.448 1.975-1.561.144-2.27-2.414-.936-8.425.716-9.012 2.477-.623 1.87 6.265 1.709 8.868-.206zm21.804 6.857c0-1.76.48-3.2 1.067-3.2s1.067 1.44 1.067 3.2-.48 3.2-1.067 3.2-1.067-1.44-1.067-3.2zm-33.912-16.267c.494-1.651 13.253-8.267 15.945-8.267 3.361 0 2.164 1.906-2.032 3.236-2.2.698-6.1 2.415-8.668 3.816-5.372 2.932-5.787 3.028-5.245 1.214zm-3.042 74.303c10.11-2.618 10.374-3.015 4.116-6.187-3.02-1.53-6.176-2.783-7.013-2.783s-1.791-.704-2.122-1.564-3.292-3.083-6.581-4.94c-7.46-4.21-8.925-6.433-10.207-15.483-.562-3.97-1.218-7.413-1.457-7.652s-1.462 1.58-2.718 4.041-4.24 6.598-6.63 9.192c-4.641 5.035-4.795 7.181-.305 4.239 3.468-2.273 4.364-1.672 5.188 3.476 1.392 8.705 11.606 19.291 18.662 19.34 1.382.01 5.462-.746 9.067-1.68zm-56.338-12.237c.385-.624-.151-2.075-1.193-3.226-1.817-2.007-1.807-2.208.236-4.944 1.171-1.569 5.096-4.48 8.722-6.47s6.593-4.055 6.593-4.589-2.04-.974-4.533-.977c-6.607-.009-12.151-1.839-14.459-4.772-1.375-1.748-2.72-2.389-4.199-2.003-2.076.543-2.113.845-.811 6.608.751 3.322 1.683 8.286 2.071 11.031.98 6.928 5.567 12.586 7.573 9.341zm-53.375-6.994l8.828-2.135c2.147-.565 5.71-10.017 5.357-14.213-.349-4.158-3.217-5.392-3.852-1.657-1.357 7.993-2.413 9.993-5.821 11.027-5.987 1.817-14.505 2.325-15.407.919-.451-.704-1.092-5.227-1.424-10.052-.632-9.177-1.324-11.079-3.31-9.094-1.566 1.566.478 24.211 2.394 26.519.792.955 2.265 1.387 3.559 1.045 1.214-.321 5.568-1.383 9.675-2.36zm75.523-9.891c3.25-3.475 8.021-11.66 15.635-26.824 13.566-27.021 16.63-31.177 27.881-37.82 11.829-6.985 21.843-10.297 33.109-10.951 11.793-.684 16.112.171 20.55 4.067 6.282 5.516 6.758 3.6.903-3.635l-4-4.943-9.067.029c-14.756.047-23.097 1.603-33.977 6.337-11.608 5.052-18.261 9.369-21.859 14.188-1.412 1.891-6.309 10.637-10.883 19.437s-9.722 18.078-11.441 20.618-3.561 6.199-4.095 8.131c-1.441 5.219-8.76 12.877-15.423 16.136-5.566 2.723-8.624 5.791-7.197 7.218 1.316 1.316 15.33-7.141 19.864-11.989zm-78.837-.735c1.092-2.847.724-21.606-.438-22.324-1.519-.939-5.265 7.773-5.279 12.278-.023 7.265 1.192 11.733 3.19 11.733 1.034 0 2.171-.759 2.527-1.687zm10.632-6.977a113.27 113.27 0 0 0 2.307-11.968c.41-3.284 1.407-6.519 2.215-7.19 3.751-3.113-3.689-4.379-7.998-1.361-2.418 1.694-2.484 2.134-2.044 13.634.63 16.46 2.44 18.717 5.52 6.885zm63.859-1.696c3.211-3.069 11.775-16.433 12.996-20.278.459-1.447.144-2.386-.941-2.802-.897-.344-1.632-1.889-1.632-3.433 0-1.77-1.34-4.147-3.627-6.433-2.954-2.954-4.444-3.627-8.034-3.627-11.975 0-21.406 9.35-21.406 21.221 0 2.919.511 6.658 1.135 8.309 1.334 3.531 5.97 8.697 8.999 10.029 3.512 1.544 9.189.189 12.51-2.986zm-11.681-6.973c-4.356-5.629.54-16.8 7.363-16.8 3.266 0 7.465 4.913 7.077 8.278-.488 4.226-3.683 4.439-4.591.306-.924-4.207-4.023-6.019-6.337-3.706-.921.921-1.674 2.337-1.674 3.148 0 2.738 2.445 6.862 4.444 7.497 1.093.347 1.712 1.076 1.375 1.621-.899 1.455-6.458 1.206-7.656-.343zm-31.845 8.933c.317-.513-.168-3.12-1.079-5.792-1.337-3.925-2.496-5.274-6.024-7.02-5.053-2.5-6.592-2.035-5.653 1.707 1.011 4.027 3.847 7.849 7.459 10.052 3.654 2.228 4.47 2.391 5.297 1.054zm16.793-7.575c.196-.573.199-4.602.009-8.953l-.347-7.911-2.853.763c-3.262.872-3.325 1.393-1.269 10.476 1.341 5.926 3.45 8.585 4.46 5.625zm-22.904-11.315c-3.172-2.73-5.007-3.277-5.007-1.494 0 1.325 6.605 5.469 7.417 4.654.321-.322-.764-1.744-2.41-3.161zm72.297-22.794c4.515-7.493 9.035-13.464 12.601-16.646 6.302-5.622 17.483-11.362 26.79-13.753 3.462-.89 6.458-1.781 6.657-1.98s-2.503-3.767-6.006-7.928c-4.593-5.457-7.935-8.299-11.991-10.197-8.029-3.758-31.687-11.836-32.444-11.079-.35.35 1.341 3.122 3.759 6.158 2.633 3.307 4.394 6.642 4.392 8.315-.004 2.979-3.03 8.678-6.758 12.729-1.943 2.112-2.294 3.883-2.427 12.267-.174 10.953-1.671 17.201-5.171 21.592l-2.359 2.959 2.584 4.624c1.421 2.543 2.753 4.624 2.958 4.624s3.542-5.258 7.414-11.684zm-2.149-14.651c2.102-8.377 20.042-26.998 26.01-26.998 3.702 0 3.149 5.44-.789 7.766-1.7 1.004-7.889 6.388-13.753 11.963s-11.005 10.137-11.425 10.137-.439-1.291-.043-2.868zM175.325 80.55c3.331-3.331 13.82-7.189 20.718-7.62 7.919-.496 9.513-1.23 11.428-5.265 2.862-6.032 2.242-15.359-1.495-22.463-3.476-6.608-3.308-8.529.657-7.534 3.974.997 8.448-1.949 10.411-6.857 1.507-3.767 1.543-4.786.27-7.774-3.526-8.275-12.103-11.341-21.589-7.718-11.154 4.26-23.191 21.064-25.937 36.208-2.242 12.366-.893 31.537 2.218 31.537.442 0 1.936-1.132 3.319-2.515zm153.848-8.62l35.2-11.807c5.867-2.15 15.947-5.317 22.4-7.036 24.893-6.632 88.105-26.162 97.795-30.215 3.944-1.65 7.271-5.218 7.271-7.798 0-1.681-.736-1.528-21.867 4.535l-74.667 20.965c-6.453 1.669-20.133 5.638-30.4 8.818-15.321 4.747-42.221 12.335-58.133 16.399-2.731.698-3.284 1.437-3.771 5.045-.314 2.325-.942 4.828-1.396 5.561-.983 1.588-.018 3.474 1.763 3.447.699-.011 12.31-3.573 25.804-7.916zm-39.981 1.025c-.972-1.171-1.83-1.299-3.331-.496-2.862 1.531-2.519 2.073 1.309 2.073 2.819 0 3.129-.243 2.021-1.578zm25.334-12.763c6.296-2.021 18.422-5.581 26.947-7.912s23.885-6.866 34.133-10.078 20.314-6.168 22.367-6.569c3.611-.704 50.416-13.382 65.6-17.769 21.794-6.296 25.067-7.49 25.067-9.14 0-1.416-1.128-1.593-7.2-1.128-7.085.542-62.797 13.766-93.067 22.091l-24.533 6.431c-21.842 5.245-51.927 12.956-54.066 13.857-1.709.72-2.422 2.065-2.667 5.029-.264 3.196-.951 4.34-3.268 5.445-2.88 1.374-3.984 3.416-1.847 3.416.598 0 6.238-1.653 12.533-3.674zm-21.353-21.477c2.71-.553 3.238-3.759.934-5.671-.806-.669-6.226-1.831-12.045-2.582-6.165-.796-11.644-2.111-13.132-3.153l-2.552-1.788 3.896-1.628c2.143-.895 5.712-1.635 7.931-1.644 10.192-.041 8.188-3.708-5.986-10.953-12.19-6.231-20.605-7.691-38.795-6.734-13.129.691-19.291 1.768-17.234 3.013.54.327 5.062 1.667 10.049 2.977 11.406 2.998 24.94 9.195 30.239 13.848 2.238 1.965 5.938 6.324 8.221 9.687l4.152 6.114 10.961-.498c6.029-.274 12.041-.718 13.361-.988z"/></svg>