<svg xmlns="http://www.w3.org/2000/svg" width="816" height="816" xmlns:v="https://vecta.io/nano"><defs><clipPath id="A"><path d="M0 612h612V0H0z"/></clipPath><linearGradient x1="-98.887" y1="306" x2="184.945" y2="306" gradientUnits="userSpaceOnUse" spreadMethod="pad" id="B"><stop offset="0" stop-color="#ed1c24"/><stop offset=".128" stop-color="#f68712"/><stop offset=".267" stop-color="#f68712"/><stop offset=".539" stop-color="#fbbc09"/><stop offset=".58" stop-color="#fbbc09"/><stop offset=".781" stop-color="#80cc28"/><stop offset="1" stop-color="#00adef"/></linearGradient><clipPath id="C"><path d="M-.096 612h397.818V0H-.096z"/></clipPath><linearGradient x1="182.511" y1="306" x2="383.364" y2="306" gradientUnits="userSpaceOnUse" spreadMethod="pad" id="D"><stop offset="0" stop-color="#ed1c24"/><stop offset=".082" stop-color="#f68712"/><stop offset=".169" stop-color="#f68712"/><stop offset=".305" stop-color="#fbbc09"/><stop offset=".334" stop-color="#fbbc09"/><stop offset=".476" stop-color="#80cc28"/><stop offset=".626" stop-color="#00adef"/><stop offset=".781" stop-color="#176fc1"/><stop offset=".805" stop-color="#176fc1"/><stop offset=".942" stop-color="#5e2590"/></linearGradient><filter id="E" color-interpolation-filters="sRGB"><feGaussianBlur result="A" in="SourceAlpha" stdDeviation="2.2"/><feSpecularLighting specularExponent="18.1" specularConstant="2" surfaceScale="5"><feDistantLight azimuth="225" elevation="24"/></feSpecularLighting><feComposite result="C" operator="in" in2="SourceAlpha"/><feMorphology radius="5.7" operator="dilate"/><feGaussianBlur result="D" stdDeviation="5.7"/><feDiffuseLighting surfaceScale="5" diffuseConstant="2" in="A"><feDistantLight elevation="25" azimuth="225"/></feDiffuseLighting><feBlend mode="multiply" in2="SourceGraphic"/><feComposite operator="in" in2="SourceAlpha"/><feBlend mode="lighten" in="C"/><feComposite in="D"/></filter></defs><g opacity=".969"><path d="M-1.132-2.566h823.094v821.962H-1.132z" fill="#2b2200"/></g><g opacity=".487"><path d="M1.132-1.434h818.566v820.83H1.132z" fill="navy"/></g><g filter="url(#E)" transform="matrix(1.333333 0 0 -1.333333 0 816)"><g clip-path="url(#A)"><path d="M230.194 0c-23.162 37.427-39.009 75.832-37.868 114.619 2.061 67.718 55.17 134.157 102.028 192.777 49.26 61.59 97.179 127.355 95.1 194.669-1.196 37.574-17.709 74.534-40.145 109.935h-3.604c22.718-35.514 39.517-72.548 40.71-110.03 2.049-66.285-45.529-131.533-94.437-192.683-47.154-58.99-100.598-125.849-102.69-194.578C188.142 75.765 203.729 37.364 226.628 0zm42.226 0c-42.658 54.976-79.984 112.911-78.253 171.714 2.061 67.718 55.17 134.159 102.027 192.778 49.26 61.59 97.179 127.356 95.101 194.668-.566 17.784-4.564 35.43-10.996 52.84h-3.246c6.558-17.468 10.637-35.151 11.204-52.935 2.047-66.284-45.531-131.532-94.438-192.683-47.154-58.989-100.598-125.848-102.689-194.577C189.39 112.714 226.18 54.868 268.579 0zm29.376 0L274.53 34.469c-48.999 61.078-96.674 126.257-94.722 192.544 2.062 67.718 55.171 134.158 102.029 192.779 48.659 60.841 96.01 125.754 95.153 192.208h-3.04c.864-65.469-46.164-129.894-94.489-190.318-47.153-58.99-100.599-125.849-102.69-194.578-1.983-67.317 46.035-133.01 95.385-194.529L297.959 0zm5.5 0c-18.521 29.056-40.974 57.065-62.16 83.493-48.998 61.079-96.672 126.257-94.721 192.545 2.062 67.719 55.171 134.159 102.027 192.779 36.616 45.781 72.492 93.867 87.643 143.183h-3.184c-15.156-48.516-50.631-96.027-86.834-141.292-47.154-58.989-100.597-125.85-102.69-194.579-1.981-67.317 46.034-133.011 95.386-194.528C263.495 55.737 285.448 28.352 303.687 0zm-20.393 0c-20.242 42.964-53.341 84.254-83.816 122.271-48.998 61.077-96.672 126.254-94.722 192.543 2.062 67.715 55.171 134.159 102.029 192.78 26.95 33.696 53.499 68.64 71.679 104.406h-3.412c-18.037-35.05-44.145-69.384-70.643-102.516-47.154-58.991-100.599-125.853-102.691-194.58-1.98-67.317 46.035-133.011 95.387-194.528C230.767 82.887 263.387 42.192 283.537 0zm-41.009 0c-17.482 52.078-57.666 102.207-94.102 147.658-48.998 61.079-96.672 126.258-94.721 192.545 2.061 67.717 55.17 134.158 102.028 192.778 20.537 25.677 40.841 52.08 57.386 79.019h-3.568c-16.284-26.259-36.127-52.039-56.194-77.129-47.154-58.99-100.599-125.85-102.691-194.578-1.98-67.317 46.035-133.012 95.387-194.528C185.46 100.804 225.195 51.236 242.683 0zM133.775 0c-16.794 53.379-58.002 104.785-95.284 151.293-13.28 16.554-26.463 33.411-38.587 50.507v-5.225c11.471-15.963 23.8-31.702 36.214-47.177C73.012 103.375 113.774 52.526 130.584 0zM9.407 0C6.365 5.066 3.188 10.104-.096 15.107v-2.493c19.622 46.093 55.05 90.416 87.499 131.013 48.908 61.147 96.486 126.395 94.439 192.681-2.159 67.789-55.368 134.117-102.313 192.636C57.914 555.903 36.555 583.662 19.542 612h3.546c16.769-27.652 37.668-54.789 58.814-81.162 47.242-58.888 100.786-125.635 102.978-194.435 2.078-67.315-45.841-133.079-95.101-194.668C55.845 99.283 18.632 52.728-.096 4.557v4.97L5.856 0zM-.096 413.582c4.18 15.215 6.325 30.543 5.849 45.951-.395 12.398-2.457 24.729-5.849 36.959v-13.084c1.587-7.962 2.555-15.956 2.811-23.97.337-10.917-.672-21.805-2.811-32.652zm0-114.645c21.784 36.39 36.411 73.736 35.243 111.572-1.107 34.78-15.338 69.035-35.243 102.015v-5.948c18.301-31.244 31.166-63.533 32.204-96.162 1.101-35.624-12.133-70.95-32.204-105.501zm0-99.244c42.358 54.966 79.118 112.905 77.292 172.041C75.398 428.198 39.01 483.28-.096 533.771V528.8c37.884-49.257 72.521-102.738 74.254-157.161 1.763-57.073-33.264-113.377-74.254-166.958zM10.838 612C9.695 595.753 5.82 579.608-.096 563.602v4.943c7.582-9.984 15.393-19.874 23.238-29.658 46.944-58.519 100.152-124.847 102.311-192.636 2.047-66.285-45.531-131.533-94.438-192.683L-.096 113.965v-5.039c11.008 14.63 22.422 28.909 33.487 42.753 49.259 61.588 97.178 127.351 95.1 194.667-2.191 68.8-55.736 135.546-102.976 194.436L-.096 573.58v-.695C4.095 585.858 6.848 598.905 7.79 612zM52.921 0c17.021 52.029 57.29 102.406 93.768 148.043 49.26 61.588 97.179 127.352 95.101 194.669-2.191 68.8-55.736 135.547-102.977 194.435-19.535 24.365-38.86 49.38-54.913 74.853h-3.584c16.326-26.152 36.116-51.792 56.124-76.747 46.945-58.52 100.153-124.847 102.313-192.636 2.047-66.289-45.531-131.536-94.44-192.683C107.445 103.811 66.731 52.877 49.724 0zm47.099 0c11.344 59.809 57.885 118.034 99.496 170.091 49.259 61.589 97.178 127.352 95.1 194.666-2.191 68.803-55.736 135.549-102.976 194.439-13.869 17.296-27.631 34.921-40.192 52.804h-3.706c12.93-18.543 27.171-36.797 41.525-54.699 46.944-58.519 100.152-124.847 102.311-192.638 2.048-66.286-45.53-131.533-94.438-192.681C155.172 119.479 108.22 60.74 96.927 0zm42.188 0c-.3 4.433-.393 8.871-.262 13.315 2.062 67.718 55.171 134.159 102.029 192.777 49.258 61.592 97.178 127.357 95.099 194.669-2.191 68.803-55.736 135.549-102.977 194.436L222.774 612h-3.852l14.802-18.697c46.945-58.519 100.153-124.845 102.312-192.637 2.047-66.283-45.53-131.532-94.437-192.684-47.154-58.989-100.598-125.848-102.692-194.577-.132-4.475-.042-8.944.254-13.405zm39.724 0c-7.175 19.953-11.132 40.125-10.534 60.443 2.092 68.727 55.537 135.588 102.691 194.579 48.906 61.149 96.484 126.397 94.437 192.682-1.816 57.064-39.805 113.09-79.782 164.296h3.85c39.737-51.078 77.147-106.927 78.969-164.201 2.08-67.314-45.839-133.077-95.099-194.666-46.858-58.621-99.967-125.065-102.027-192.78-.597-20.249 3.438-40.396 10.727-60.353z" fill="url(#B)"/><g clip-path="url(#C)" opacity=".2"><path d="M341.021 612c28.133-40.544 50.376-83.348 51.756-126.751 2.049-66.386-45.529-131.732-94.438-192.974-47.153-59.079-100.597-126.039-102.689-194.871-.969-32.957 10.01-65.523 27.251-97.404h3.459c-17.466 31.925-28.637 64.483-27.672 97.313 2.061 67.821 55.17 134.361 102.027 193.068 49.262 61.683 97.18 127.547 95.101 194.962-1.384 43.53-23.261 86.237-51.097 126.657zm35.449 0c10.566-22.841 17.404-46.119 18.149-69.571 2.047-66.383-45.531-131.73-94.438-192.972-47.154-59.08-100.598-126.04-102.689-194.871C195.935 101.646 225.213 49.702 261.756 0h3.775C228.7 49.802 198.98 101.801 200.529 154.495c2.06 67.818 55.17 134.36 102.027 193.068 49.26 61.683 97.178 127.547 95.1 194.961-.746 23.475-7.452 46.709-17.839 69.476zm2.612 0c.628-4.721 1.027-9.45 1.178-14.188 2.049-66.382-45.53-131.729-94.437-192.973-47.154-59.078-100.599-126.039-102.691-194.871-1.982-67.417 46.035-133.21 95.386-194.822L290.61 0h3.878l-13.596 17.044c-48.999 61.169-96.674 126.446-94.723 192.833 2.063 67.82 55.172 134.361 102.03 193.069 49.26 61.684 97.178 127.548 95.1 194.961-.15 4.708-.539 9.406-1.151 14.093zm-31.477 0c-11.466-54.331-50.87-107.59-91.176-158.061-47.154-59.079-100.597-126.039-102.69-194.873-1.982-67.419 46.034-133.211 95.386-194.82C265.571 43.697 282.787 22.189 298.307 0h3.705c-15.882 22.875-33.602 45.014-50.514 66.142-48.998 61.171-96.672 126.446-94.721 192.835 2.061 67.82 55.171 134.361 102.027 193.068C299.5 503.004 339.282 556.816 350.712 612zm-54.726 0c-17.719-40.852-47.848-80.845-78.5-119.226-47.153-59.08-100.598-126.043-102.69-194.873-1.981-67.419 46.035-133.212 95.387-194.821C232.964 70.736 260.757 36.013 280.843 0h3.478c-20.262 36.75-48.546 72.086-74.872 104.977-48.998 61.169-96.672 126.445-94.722 192.834 2.062 67.817 55.171 134.36 102.028 193.07 31.089 38.928 61.643 79.521 79.433 121.119zm-63.885 0c-17.711-32.027-41.647-63.419-65.91-93.801-47.153-59.079-100.598-126.04-102.69-194.871-1.98-67.419 46.035-133.212 95.387-194.821C187.714 88.61 222.546 45.093 242.235 0h3.316c-19.747 45.885-55.05 89.99-87.397 130.403-48.998 61.17-96.672 126.447-94.721 192.834 2.061 67.819 55.17 134.361 102.027 193.069 24.722 30.955 49.106 62.965 67.002 95.694zm-62.101 0c-16.975-28.58-38.455-56.617-60.197-83.843C59.542 469.078 6.098 402.118 4.006 333.286c-1.981-67.42 46.035-133.212 95.386-194.822C133.671 95.64 171.29 48.641 189.933 0h3.254c-18.662 49.461-56.741 97.033-91.422 140.361-48.998 61.17-96.672 126.446-94.721 192.834 2.061 67.82 55.17 134.361 102.028 193.069 22.208 27.809 44.145 56.468 61.349 85.736zM-.096 188.417c13.208-19.085 27.832-37.865 42.576-56.271C75.272 91.178 111.121 46.391 130.49 0h3.293c-19.413 47.192-55.728 92.562-88.93 134.042-15.642 19.528-31.149 39.475-44.949 59.741zm0-91.179C24.383 66.479 49.425 33.771 67.21 0h3.433C52.125 35.599 25.564 69.945-.096 102.113zm0-95.51L1.064 0h3.654L-.096 7.131zm0 375.705c8.257 21.546 12.888 43.348 12.211 65.315-.601 18.907-5.069 37.658-12.211 56.135v-8.873c5.365-15.651 8.667-31.464 9.173-47.358.582-18.868-2.846-37.652-9.173-56.283zM75.658 612c-17.99-38.906-46.604-76.895-75.754-113.424v1.785c21.624-34.531 37.411-70.459 38.566-106.806 1.214-39.326-14.989-78.288-38.566-116.247v-5.707c25.239 39.687 42.884 80.574 41.605 122.049-1.222 38.441-18.428 76.242-41.605 112.393v-2.591C27.782 538.507 54.912 574.88 72.306 612zM-.096 174.321c44.965 57.47 85.571 118.323 83.654 180.495-1.895 59.606-42.223 117.675-83.654 170.442v-4.928C40.185 468.758 78.69 412.265 80.52 354.721c1.854-60.096-36.961-119.341-80.616-175.46zm0-91.282c12.923 17.654 26.635 34.833 39.848 51.39 49.26 61.681 97.179 127.545 95.101 194.961-2.191 68.903-55.736 135.75-102.977 194.729-10.9 13.614-21.735 27.434-31.972 41.421v-5.126c9.536-12.889 19.54-25.628 29.599-38.193 46.945-58.608 100.153-125.035 102.312-192.926 2.047-66.387-45.531-131.732-94.439-192.973L-.096 88.166zM16.535 612c18.117-34.137 43.554-67.508 69.356-99.737 46.944-58.608 100.153-125.035 102.313-192.926 2.046-66.386-45.532-131.732-94.439-192.973C62.453 87.131 28.366 44.423 8.385 0h3.339C31.63 43.643 65.245 85.76 96.141 124.471c49.26 61.681 97.179 127.545 95.101 194.961-2.192 68.903-55.737 135.75-102.978 194.729C62.919 545.818 37.929 578.572 19.979 612zm60.351 0c17.821-31.937 41.708-63.181 65.916-93.418 46.945-58.608 100.153-125.036 102.313-192.926 2.047-66.389-45.532-131.734-94.44-192.974C117.88 91.593 82.043 46.692 62.554 0h3.3c19.441 45.896 54.813 90.212 87.197 130.787 49.26 61.682 97.179 127.544 95.101 194.963-2.192 68.904-55.736 135.751-102.977 194.729-23.745 29.66-47.18 60.283-64.805 91.521zm66.117 0c15.615-24.278 34.026-48.104 52.625-71.337 46.945-58.608 100.153-125.036 102.312-192.93 2.048-66.384-45.53-131.729-94.439-192.969C165.566 107.233 123.56 54.603 107.496 0h3.172c16.09 53.738 57.657 105.819 95.209 152.869 49.26 61.682 97.179 127.543 95.101 194.96-2.191 68.906-55.736 135.753-102.977 194.731-18.123 22.637-36.064 45.836-51.381 69.44zm69.648 0c8.88-11.897 18.134-23.663 27.434-35.281 46.946-58.607 100.153-125.032 102.313-192.927 2.047-66.383-45.53-131.73-94.438-192.974C201.733 132.9 149.459 67.406 145.451 0h3.046c4.034 66.385 55.937 131.414 101.839 188.925 49.259 61.684 97.18 127.549 95.1 194.962-2.192 68.907-55.736 135.753-102.978 194.729L216.445 612zm73.269 0c44.193-55.532 89.984-117.391 92.006-181.004 2.078-67.416-45.84-133.278-95.1-194.961-46.858-58.709-99.967-125.251-102.028-193.069-.423-14.385 1.485-28.717 5.23-42.966h-3.142c-3.682 14.261-5.55 28.621-5.126 43.056 2.092 68.831 55.536 135.793 102.691 194.874 48.906 61.239 96.485 126.586 94.438 192.97-2.015 63.366-48.497 125.454-92.853 181.1z" fill="url(#D)"/></g></g></g></svg>